<svg width="35" height="35" viewBox="0 0 35 35" xmlns="http://www.w3.org/2000/svg"><title>Desktop Copy 6</title><g transform="translate(1 2)" fill="none" fill-rule="evenodd"><circle stroke="#AE5351" stroke-width="2" cx="16" cy="16" r="16"/><g fill="#AE5351"><path d="M18.991 15.446a.21.21 0 0 0-.126-.131v-.001c-.582-.217-1.372.24-1.747.635-.338.354-.41.871-.205 1.243l-.7.738v-1.424c.478-.114.84-.617.84-1.217 0-.77-.367-1.786-.958-2.082a.196.196 0 0 0-.177.001c-.592.295-.958 1.31-.958 2.08 0 .601.361 1.104.84 1.218v1.413l-.696-.732c.206-.373.133-.89-.204-1.244-.375-.394-1.166-.852-1.748-.635v.001a.21.21 0 0 0-.126.131c-.206.612.23 1.443.605 1.837.211.222.484.336.746.336.154 0 .303-.04.435-.12l.988 1.04v.543c0 .12.092.217.206.217a.212.212 0 0 0 .207-.217v-.532l.993-1.046c.131.08.28.12.435.12.261 0 .534-.113.746-.335.375-.394.81-1.225.604-1.837zm-5.069 1.524c-.308-.324-.574-.904-.53-1.278.355-.046.908.234 1.216.558a.67.67 0 0 1 .184.608l-.505-.532a.2.2 0 0 0-.292 0 .225.225 0 0 0 0 .307l.504.53c-.183.051-.409-.016-.577-.193zm1.45-1.681c0-.584.257-1.357.634-1.635.377.278.633 1.051.633 1.635 0 .353-.178.653-.427.762v-.996a.212.212 0 0 0-.206-.217.212.212 0 0 0-.206.217v.996c-.248-.11-.427-.41-.427-.762zm2.723 1.687c-.168.176-.393.244-.577.193l.51-.536a.225.225 0 0 0 0-.307.2.2 0 0 0-.292 0l-.51.537a.67.67 0 0 1 .184-.607c.308-.324.86-.604 1.216-.558.044.374-.223.954-.53 1.278z"/><path d="M16.006 20.147c-2.174 0-3.943-1.858-3.943-4.142 0-2.284 1.77-4.143 3.943-4.143 2.174 0 3.943 1.859 3.943 4.143s-1.769 4.142-3.943 4.142zm0-7.851c-1.946 0-3.53 1.664-3.53 3.709s1.584 3.709 3.53 3.709c1.946 0 3.53-1.664 3.53-3.71 0-2.044-1.584-3.708-3.53-3.708z"/><path d="M21.565 22.629a1.092 1.092 0 0 0-.676-.1c1-4.274 1-8.773 0-13.048a1.077 1.077 0 0 0 .677-.1c.54-.27.907-.988 1.074-2.133.031-.21-.166-.256-.236-.247V7c-1.089.18-1.772.56-2.03 1.13a1.23 1.23 0 0 0-.109.554 5.03 5.03 0 0 0-.954-.267c-.885-.173-2.059-.268-3.305-.268s-2.42.095-3.305.268a5.03 5.03 0 0 0-.954.267 1.232 1.232 0 0 0-.109-.555c-.258-.568-.941-.948-2.03-1.129-.146-.002-.254.13-.236.248.172 1.145.534 1.862 1.075 2.134a1.077 1.077 0 0 0 .676.1c-1 4.274-1 8.773 0 13.047a1.083 1.083 0 0 0-.676.1c-.652.33-1.078 1.888-1.075 2.201 0 .108.104.183.203.183.21 0 1.797-.439 2.063-1.132a1.43 1.43 0 0 0 .11-.555c.222.093.53.184.953.267.885.173 2.059.268 3.305.268s2.42-.095 3.305-.268c.424-.083.731-.174.954-.267-.006.168.02.359.109.555.258.569.943.937 2.03 1.13.045.008.065 0 .065 0a.216.216 0 0 0 .171-.248c-.172-1.145-.533-1.863-1.075-2.134zm-.819-14.313c.173-.38.666-.665 1.434-.832-.159.803-.428 1.32-.788 1.504a.756.756 0 0 1-.647.005.881.881 0 0 1 .001-.677zm-7.845.504c.845-.153 1.948-.237 3.105-.237s2.26.084 3.105.237c.976.177 1.272.387 1.309.458 0 .005.053.241.076.34-.243-.104-.598-.207-1.119-.3-.913-.164-2.11-.254-3.371-.254-1.26 0-2.457.09-3.37.253-.521.094-.876.197-1.12.3.023-.098.076-.339.076-.34.037-.07.334-.28 1.31-.457zm-2.277.17c-.361-.181-.633-.7-.792-1.506.764.167 1.257.45 1.432.828.133.288.05.566.004.68-.108.047-.373.134-.644-.002zm.642 14.704c-.173.38-.666.666-1.434.833.159-.803.429-1.321.788-1.504a.755.755 0 0 1 .647-.005.881.881 0 0 1-.001.676zm9.154-.962c-.037.071-.334.28-1.31.458-.844.153-1.947.237-3.104.237s-2.26-.084-3.105-.237c-.975-.177-1.272-.387-1.309-.458l-.076-.34c.244.104.599.207 1.119.3.913.164 2.11.254 3.371.254 1.26 0 2.457-.09 3.37-.254.521-.093.876-.196 1.12-.3l-.076.34zm-1.175-.456c-.883.152-2.033.237-3.239.237s-2.356-.085-3.238-.237c-1.042-.18-1.35-.397-1.38-.462a28.296 28.296 0 0 1 0-11.617c.036-.07.348-.285 1.38-.463.882-.153 2.032-.237 3.238-.237s2.356.084 3.238.237c1.04.18 1.35.396 1.38.46a28.295 28.295 0 0 1 0 11.618c-.034.07-.345.285-1.38.464zm1.503 1.423a.87.87 0 0 1-.004-.68c.108-.047.373-.134.644.001.361.182.633.7.792 1.507-.764-.167-1.257-.45-1.432-.828z" stroke="#AE5351" stroke-width="4"/></g></g></svg>