<svg width="35" height="35" viewBox="0 0 35 35" xmlns="http://www.w3.org/2000/svg"><title>Desktop Copy 9</title><g transform="translate(2 1.5)" fill="none" fill-rule="evenodd"><circle stroke="#AE5351" stroke-width="2" cx="16" cy="16" r="16"/><g fill="#AE5351"><path d="M16 25.391c3.676 0 6.667-3.18 6.667-7.09 0-4.254-4.115-8.65-6.324-11-.19-.203-.495-.203-.667 0-2.228 2.35-6.343 6.746-6.343 11 0 3.91 2.99 7.09 6.667 7.09zm0-17.016c2.171 2.309 5.714 6.28 5.714 9.926 0 3.343-2.571 6.077-5.714 6.077-3.143 0-5.714-2.734-5.714-6.077 0-3.646 3.543-7.597 5.714-9.926z"/><path d="M16 23.122c.133 0 .248-.121.248-.263 0-.142-.115-.263-.248-.263-2.229 0-4.057-1.925-4.057-4.315 0-.142-.114-.264-.248-.264-.133 0-.247.122-.247.264.038 2.674 2.057 4.841 4.552 4.841z"/></g></g></svg>