<svg width="35" height="35" viewBox="0 0 35 35" xmlns="http://www.w3.org/2000/svg"><title>Desktop Copy 7</title><g transform="translate(2 1.5)" fill="none" fill-rule="evenodd"><circle stroke="#AE5351" stroke-width="2" cx="16" cy="16" r="16"/><path d="M23.801 16.04c0 .322-.247.58-.555.58h-.103l-2.201 6.803a.552.552 0 0 1-.514.387h-8.619a.553.553 0 0 1-.514-.387L9.012 16.62H8.89a.565.565 0 0 1-.556-.58c0-.321.247-.579.556-.579h4.484l1.007-2.854a.826.826 0 0 1-.144-.751l.823-2.34a.731.731 0 0 1 .7-.515h.617a.73.73 0 0 1 .699.515l.823 2.34a.825.825 0 0 1-.144.75l1.007 2.855h4.484c.31 0 .556.258.556.58zm-13.596.58l.494 1.48h2.098l-.247-1.48h-2.345zm1.255 3.755h1.707l-.247-1.502h-1.974l.514 1.502zm.76 2.275h1.338l-.247-1.502h-1.604l.514 1.502zm1.07-6.03l.247 1.48h2.16v-1.48H13.29zm.638 3.755h1.769v-1.502H13.68l.247 1.502zm.123.773l.268 1.502h1.378v-1.502h-1.646zm.103-5.688h3.826l-.905-2.597c-.268-.042-.473-.214-.576-.493l-.432-1.245-.432 1.245c-.103.279-.308.45-.576.493l-.905 2.597zm4.443 2.64l.247-1.48h-2.407v1.48h2.16zm-.144.773h-2.016v1.502h1.77l.246-1.502zm-2.016 3.777h1.378l.268-1.502h-1.646v1.502zm4.073-1.502h-1.687l-.247 1.502h1.44l.494-1.502zm.72-2.275h-2.016l-.267 1.502h1.81l.473-1.502zm.74-2.254h-2.386l-.247 1.481h2.16l.473-1.48z" fill="#AE5351"/></g></svg>