<svg width="35" height="35" viewBox="0 0 35 35" xmlns="http://www.w3.org/2000/svg"><title>Desktop Copy</title><g transform="translate(2 1)" fill="none" fill-rule="evenodd"><circle stroke="#AE5351" stroke-width="2" fill="#FFF" cx="16" cy="16" r="16"/><path d="M19.524 8.351l-2.038-.003c-2.29 0-3.77 1.598-3.77 4.071v1.878h-2.05a.33.33 0 0 0-.32.337v2.72a.33.33 0 0 0 .32.338h2.05v6.863a.33.33 0 0 0 .32.338h2.674a.33.33 0 0 0 .32-.338v-6.863h2.397a.33.33 0 0 0 .32-.338l.002-2.72a.347.347 0 0 0-.094-.238.313.313 0 0 0-.227-.1H17.03v-1.59c0-.766.173-1.154 1.12-1.154h1.373a.33.33 0 0 0 .32-.338V8.69a.33.33 0 0 0-.32-.338z" fill="#AE5351"/></g></svg>