<svg width="35" height="35" viewBox="0 0 35 35" xmlns="http://www.w3.org/2000/svg"><title>Desktop Copy 2</title><g transform="translate(2 2)" fill="none" fill-rule="evenodd"><circle stroke="#9F504E" stroke-width="2" fill="#FFF" cx="16" cy="16" r="16"/><path d="M18.747 9.391h-3.403c-1.516 0-2.566.348-3.51 1.165-.744.67-1.187 1.645-1.187 2.607 0 1.483 1.08 3.058 3.082 3.058.192 0 .405-.02.593-.039l-.028.07c-.08.202-.156.393-.156.69 0 .578.266.934.524 1.279l.033.044-.058.004c-.827.06-2.365.17-3.489.892-1.327.826-1.43 2.027-1.43 2.375 0 1.386 1.234 2.785 3.992 2.785 3.206 0 4.884-1.851 4.884-3.68 0-1.352-.757-2.02-1.562-2.728l-.678-.553c-.21-.181-.471-.408-.471-.827 0-.412.261-.684.491-.924l.024-.025c.733-.604 1.564-1.289 1.564-2.77 0-1.49-.89-2.259-1.317-2.629h1.13a.07.07 0 0 0 .038-.011l.973-.64a.079.079 0 0 0 .032-.087.074.074 0 0 0-.07-.056zM14.62 23.505c-1.954 0-3.268-.955-3.268-2.377 0-.928.537-1.603 1.595-2.004.848-.298 1.941-.313 1.952-.313.185 0 .279 0 .426.02 1.368 1.018 2.026 1.553 2.026 2.571 0 1.297-1.047 2.103-2.73 2.103zm-.018-7.83c-1.64 0-2.321-2.256-2.321-3.464 0-.614.133-1.086.408-1.442.298-.39.808-.642 1.3-.642 1.507 0 2.34 2.118 2.34 3.582 0 .231 0 .934-.464 1.422a1.86 1.86 0 0 1-1.263.545z" fill="#AE5351"/><path d="M21.39 16.016v-1.87a.076.076 0 0 0-.074-.076h-.77a.075.075 0 0 0-.075.077v1.87h-1.784a.075.075 0 0 0-.073.077v.817c0 .043.033.077.073.077h1.784v1.882c0 .042.033.077.074.077h.771c.041 0 .074-.035.074-.077v-1.882h1.793c.041 0 .074-.034.074-.077v-.817a.075.075 0 0 0-.074-.078H21.39z" fill="#AE5351"/></g></svg>