<svg xmlns="http://www.w3.org/2000/svg" width="756.756" height="248.709" viewBox="0 0 756.756 248.709"><g fill="#A0833B"><path d="M240.508 95.258v58.737h-11.334v-25.066h-26.638v25.066H191.12V95.258h11.417v23.743h26.638V95.258h11.333zM292.379 144.316c2.701 0 4.977-.55 6.825-1.654 1.847-1.103 3.336-2.536 4.467-4.302 1.13-1.765 1.93-3.791 2.399-6.08.468-2.288.703-4.646.703-7.073V95.258h11.334v29.948c0 4.026-.483 7.805-1.448 11.333-.966 3.53-2.482 6.618-4.55 9.266s-4.729 4.744-7.983 6.288c-3.255 1.544-7.143 2.316-11.665 2.316-4.688 0-8.673-.813-11.954-2.44-3.282-1.627-5.944-3.777-7.983-6.453-2.041-2.675-3.516-5.777-4.426-9.307-.91-3.529-1.365-7.198-1.365-11.003V95.258h11.417v29.948c0 2.481.234 4.867.703 7.155.468 2.29 1.268 4.316 2.399 6.081a13.07 13.07 0 0 0 4.426 4.261c1.82 1.076 4.053 1.613 6.701 1.613zM385.199 143.986v10.01h-40.785V95.258h40.041v10.011h-28.624v14.146h24.736v9.266h-24.736v15.305h29.368zM409.272 153.996V95.258h25.977c2.701 0 5.197.566 7.486 1.696 2.288 1.131 4.261 2.62 5.915 4.467a21.123 21.123 0 0 1 3.889 6.288c.938 2.345 1.406 4.702 1.406 7.073 0 3.805-.951 7.267-2.854 10.382-1.902 3.117-4.481 5.364-7.734 6.742l13.815 22.089h-12.905l-12.327-19.689h-11.251v19.689h-11.417zm11.416-29.7H435a6.037 6.037 0 0 0 2.937-.745 7.49 7.49 0 0 0 2.357-2.026c.662-.854 1.186-1.861 1.572-3.02.385-1.158.579-2.399.579-3.723 0-1.378-.221-2.647-.662-3.806-.442-1.158-1.034-2.164-1.778-3.02a8.07 8.07 0 0 0-2.564-1.985c-.966-.469-1.944-.703-2.938-.703h-13.815v19.028zM522.445 105.269h-18.697v48.727h-11.416v-48.727h-18.78V95.258h48.894v10.011zM544.698 153.996V95.341h11.416v58.654h-11.416zM594.665 116.354v37.642h-11.416V95.258h8.852l30.609 38.552V95.341h11.417v58.654h-9.266l-30.196-37.641zM700.639 147.377c-4.523 4.688-9.735 7.032-15.636 7.032-3.752 0-7.28-.828-10.59-2.482a28.263 28.263 0 0 1-8.645-6.659c-2.455-2.784-4.385-5.998-5.791-9.638a31.194 31.194 0 0 1-2.109-11.334c0-4.025.703-7.818 2.109-11.375 1.406-3.558 3.363-6.673 5.873-9.349 2.51-2.675 5.461-4.799 8.853-6.37 3.392-1.572 7.073-2.357 11.044-2.357 5.349 0 9.928 1.158 13.733 3.475 3.805 2.316 6.672 5.433 8.604 9.348l-8.521 6.287c-1.435-2.922-3.405-5.156-5.915-6.7s-5.281-2.316-8.313-2.316c-2.428 0-4.62.524-6.577 1.571-1.959 1.049-3.627 2.482-5.005 4.302-1.38 1.82-2.455 3.917-3.227 6.288-.773 2.371-1.158 4.881-1.158 7.528 0 2.758.413 5.336 1.241 7.734.827 2.399 1.985 4.481 3.474 6.246a16.664 16.664 0 0 0 5.254 4.178c2.013 1.021 4.231 1.53 6.659 1.53 5.404 0 10.286-2.674 14.644-8.024v-4.136h-11.83V123.8h21.261v30.196h-9.431v-6.619z"/></g><g stroke="#A0833B" stroke-miterlimit="10"><path fill="none" stroke-width="3.344" d="M114.189 183.218l-14.834 24.931c-3.054 5.133-10.486 5.133-13.541 0L70.98 183.218s-25.125-40.33-25.125-50.67c0-23.155 20.957-41.926 46.809-41.926s46.809 18.771 46.809 41.926c.001 10.55-25.284 50.67-25.284 50.67z"/><circle fill="#FFF" stroke-width="3.344" cx="91.829" cy="135.011" r="14.042"/><path fill="#A0833B" stroke-width=".836" d="M130.215 52.992c-.022 0-.065.006-.117.011l-.003-.003-.136.019c-.008 0-.014 0-.022.003-.019.006-.041.006-.044.006h-.003c-1.815.254-17.981 2.744-26.575 12.055-9.125 9.872-7.21 21.199-7.123 21.676.019.112.096.188.15.283-.471 1.602-.377.986-.718 2.619-.33 1.621-2.029 1.812-2.549-.818a80.867 80.867 0 0 0-1.665-6.632c.052-.09.128-.169.147-.278.112-.624 2.624-15.499-9.365-28.471-11.281-12.21-32.49-15.52-35.022-15.875a2.226 2.226 0 0 0-.412-.049.969.969 0 0 0-.965.908.961.961 0 0 0 .845 1.016l.202.027c.607.139 4.959 1.564 10.147 14.423 5.627 13.951 10.771 21.807 17.199 26.264 3.425 2.371 8.251 2.869 11.695 2.869 2.008 0 3.61-.164 4.376-.259a79.966 79.966 0 0 1 1.392 6.324c7.623 3.872 5.474.003 5.847-1.507.621.074 1.76.185 3.207.185 2.632 0 6.319-.384 8.954-2.21 4.954-3.433 8.738-9.202 13.057-19.916 3.932-9.747 7.147-10.665 7.501-10.736.052-.016.076-.011.115-.014a.967.967 0 0 0 .845-1.016.959.959 0 0 0-.96-.904zm-52.366 5.842c3.6 4.319 6.771 9.054 9.063 14.169a60.986 60.986 0 0 1 2.839 7.826.478.478 0 0 1-.006.068 35.17 35.17 0 0 1-3.864.213c-3.169 0-7.58-.439-10.594-2.526-6.095-4.229-11.036-11.826-16.512-25.401-2.763-6.845-5.343-10.708-7.422-12.883 7.248 1.55 21.169 5.542 29.417 14.472 7.7 8.335 9.041 17.657 9.109 22.823-.632-1.689-1.308-3.362-2.093-4.995-2.488-5.153-5.82-9.823-9.575-14.082-3.815-4.144-8.229-8.071-13.632-9.894 5.347 1.976 9.606 6 13.27 10.21zm43.083 6.109c-4.114 10.196-7.812 15.894-12.371 19.052-3.286 2.272-8.651 1.918-10.55 1.725l-.003-.035a45.351 45.351 0 0 1 2.033-5.654c1.698-3.853 4.074-7.436 6.768-10.698 2.747-3.188 5.943-6.231 9.962-7.744-4.082 1.357-7.43 4.305-10.327 7.425-2.85 3.204-5.39 6.717-7.281 10.613-.431.886-.823 1.79-1.193 2.7.229-3.992 1.529-10.272 6.763-15.937 5.921-6.414 15.752-9.425 21.349-10.687-1.497 1.742-3.276 4.589-5.15 9.24z"/></g></svg>