<svg width="35" height="35" viewBox="0 0 35 35" xmlns="http://www.w3.org/2000/svg"><title>Desktop Copy 4</title><g transform="translate(2 2)" fill="none" fill-rule="evenodd"><circle stroke="#AE5351" stroke-width="2" fill="#FFF" cx="16" cy="16" r="16"/><path d="M10.332 8.348h11.573c1.099 0 1.998.849 1.998 2.085V22.51c0 1.236-.9 2.085-1.998 2.085H10.332c-1.1 0-1.999-.85-1.999-2.085V10.433c0-1.236.9-2.085 1.999-2.085zm9.343 1.805c-.385 0-.7.329-.7.731v1.751c0 .402.315.732.7.732h1.76c.386 0 .701-.33.701-.732v-1.75c0-.403-.315-.732-.7-.732h-1.76zm2.468 5.066h-1.37c.13.441.2.91.2 1.393 0 2.703-2.167 4.893-4.84 4.893s-4.84-2.19-4.84-4.893c0-.484.07-.952.2-1.393h-1.43v6.863c0 .355.279.645.62.645h10.842c.34 0 .619-.29.619-.645v-6.863zm-6.01-1.945c-1.727 0-3.127 1.416-3.127 3.162s1.4 3.162 3.127 3.162c1.727 0 3.127-1.416 3.127-3.162s-1.4-3.162-3.127-3.162z" fill="#AE5351"/></g></svg>