<svg width="32" height="32" viewBox="0 0 32 32" xmlns="http://www.w3.org/2000/svg"><title>Shape</title><path d="M31.135 22.703c-.587-.498-1.691-.902-3.622.005-1.215.57-2.996 1.249-5.446 2.073-.008.003-.014.01-.022.014-.658-.266-1.498-.421-2.52-.462-1.806-.073-3.081-.347-4.12-.718.214-.345 1.297-2.194 1.836-5.113.541-2.925.607-7.509-2.15-12.745-.008-.014-.02-.022-.028-.035.064-.562.134-1.966-.534-3.258-.576-1.114-1.546-1.854-2.883-2.2-.007-.002-.015 0-.022-.001-.008-.001-.014-.007-.022-.008-.018-.002-.033.005-.05.007-.027 0-.052.001-.078.01a.31.31 0 0 0-.063.032.348.348 0 0 0-.065.045c-.02.017-.034.038-.05.06-.017.022-.033.043-.047.07-.013.026-.02.055-.03.085-.005.02-.016.037-.02.06-.002.01 0 .018 0 .027-.001.01-.006.018-.007.027-.121 1.68.17 3.041.867 4.047a3.786 3.786 0 0 0 2.422 1.588c4.938 9.431.343 16.704.297 16.777a.523.523 0 0 0-.075.247 16.6 16.6 0 0 1-1.217-.6l-.512-.278c-2.015-1.106-3.923-2.147-8.237-.958-.009.002-.017-.001-.025.001l-4.27 1.24-.076.218c-.052.152-1.264 3.771 1.032 7.19l.189.28.266-.158c.021-.012 2.138-1.254 4.456-1.02 1.055.108 3.183.712 5.241 1.296 2.623.745 5.113 1.452 6.286 1.452.108 0 .205-.006.29-.019 1.148-.17 1.623-.41 2.771-.991.843-.426 2.116-1.07 4.36-2.04C31.064 26.444 32 25.594 32 24.53c.001-.542-.267-1.318-.865-1.827zM11.923 1.309c.903.324 1.563.876 1.965 1.648.454.872.479 1.832.447 2.374a3.054 3.054 0 0 1-1.701-1.211c-.485-.701-.723-1.645-.71-2.81zM25.01 28.071c-2.263.977-3.547 1.627-4.397 2.057-1.144.579-1.529.774-2.575.929-.873.125-3.765-.692-6.317-1.416-2.18-.62-4.239-1.204-5.348-1.316-2.04-.206-3.882.606-4.567.957C.296 26.804.799 24.283.999 23.54l3.745-1.088h.008c4.182-1.19 5.995-.194 7.916.86l.518.283c1.446.775 3.124 1.543 6.313 1.67 1.518.06 3.363.41 3.536 1.733.033.249-.004.441-.117.605-.192.28-.804.752-2.737.76-2.92.03-7.319-.901-7.362-.91-.205-.042-.401.127-.436.38-.035.254.103.495.309.538.181.039 4.44.925 7.428.925h.063c1.73-.008 2.812-.364 3.31-1.089.256-.371.355-.84.287-1.357a2.313 2.313 0 0 0-.727-1.436c2.073-.713 3.626-1.315 4.728-1.833 1.624-.763 2.486-.481 2.924-.108.44.374.54.905.54 1.06 0 .75-3.332 2.285-6.236 3.538zm-7.496-16.126c0 .024.007.045.01.068.002.031.004.062.012.092.007.029.02.052.03.078.013.027.024.053.04.076.015.023.033.04.052.059.02.019.037.037.058.052.023.014.046.02.07.03.019.007.034.02.054.023.007.001.142.022.362.022.98 0 3.655-.411 4.278-4.785.002-.014-.002-.027-.001-.042 0-.014.006-.026.006-.04 0-.018-.006-.033-.008-.05a.56.56 0 0 0-.044-.171.478.478 0 0 0-.091-.134.301.301 0 0 0-.13-.083c-.013-.005-.025-.016-.04-.02-.011-.002-.022.003-.033.002-.01-.001-.02-.008-.031-.008h-.001c-4.408.017-4.591 4.784-4.593 4.831zm4.114-3.866c-.64 3.04-2.507 3.424-3.313 3.44.146-.978.762-3.18 3.313-3.44zM16.21 17.29c-.003-.025 0-.048-.007-.072-.014-.048-1.378-4.801-5.838-3.229-.012.004-.02.014-.032.02-.011.005-.023.005-.034.012-.012.008-.02.021-.032.03a.396.396 0 0 0-.105.125.516.516 0 0 0-.06.34c.003.017 0 .033.003.05.004.014.012.024.016.038.005.014.004.029.01.042 1.18 2.902 2.883 3.538 4.15 3.538.98 0 1.7-.382 1.717-.39.018-.01.03-.028.047-.041.022-.018.044-.033.062-.055.017-.02.03-.045.043-.07.014-.025.028-.048.038-.075.01-.027.014-.055.019-.084.005-.03.012-.058.012-.089.001-.03-.004-.06-.009-.09zm-5.162-2.54c2.703-.684 3.9 1.405 4.289 2.344-.817.287-2.854.613-4.29-2.344zM9.597 8.827a.545.545 0 0 0 .004.265c.004.017.003.034.009.051.004.014.014.022.02.034.005.013.006.026.012.037 1.174 2.157 2.544 2.723 3.658 2.723 1.219 0 2.132-.677 2.15-.69.015-.013.026-.032.04-.047.02-.02.04-.04.055-.064s.025-.05.035-.075c.012-.028.023-.053.03-.082.007-.028.008-.055.01-.084.003-.031.006-.061.003-.093-.002-.028-.01-.055-.017-.082-.006-.024-.006-.05-.015-.073-.017-.043-1.753-4.31-5.787-2.119-.01.006-.017.017-.027.024-.01.007-.022.008-.031.016-.012.01-.019.025-.03.036a.452.452 0 0 0-.119.223zm5.118 1.832c-.743.39-2.573.97-4.157-1.488 2.404-1.03 3.698.669 4.157 1.488zm3.134 6.97c-.006.024-.003.047-.005.07-.004.03-.009.06-.007.091.001.03.008.058.014.087.006.029.011.057.021.084.01.026.024.048.038.07.014.026.029.051.047.072.017.02.037.033.057.047.018.014.031.033.05.043.016.008.658.325 1.534.325 1.21 0 2.868-.606 3.938-3.47.005-.014.004-.028.008-.042.004-.013.011-.023.014-.036.004-.018.001-.034.003-.051a.532.532 0 0 0-.115-.404.37.37 0 0 0-.06-.055c-.013-.009-.021-.023-.035-.03-.01-.006-.022-.005-.033-.01-.01-.005-.019-.014-.03-.018-4.267-1.37-5.428 3.181-5.44 3.228zm.865-.159c.347-.898 1.406-2.83 3.912-2.285-1.247 2.737-3.129 2.524-3.912 2.285zM16.338 6.887a.422.422 0 0 0 .124.15l.018.01a.325.325 0 0 0 .171.055.315.315 0 0 0 .157-.043c.034-.019 3.38-1.972 1.772-6.777-.005-.013-.014-.022-.019-.034-.005-.012-.006-.027-.012-.04-.008-.014-.02-.023-.03-.036a.361.361 0 0 0-.249-.168.272.272 0 0 0-.144.015c-.013.005-.026.003-.04.01-.01.005-.017.016-.027.023-.01.006-.021.007-.031.015-3.552 2.797-1.721 6.764-1.702 6.804.003.008.009.01.012.016zm1.704-5.688c.715 2.789-.582 4.253-1.224 4.78-.284-.884-.67-2.995 1.224-4.78z" fill="#FFF" fill-rule="evenodd"/></svg>