<svg width="35" height="35" viewBox="0 0 35 35" xmlns="http://www.w3.org/2000/svg"><title>Desktop Copy 12</title><g transform="translate(2 1.5)" fill="none" fill-rule="evenodd"><circle stroke="#9F504E" stroke-width="2" cx="16" cy="16" r="16"/><path d="M19.953 20.967c-.009-.115-.163-.206-.35-.206h-2.358V10.166c1.73-.46 1.84-2.514 1.84-2.516 0-.358-.474-.65-1.056-.65h-3.727c-.582 0-1.055.292-1.055.65 0 .005.11 2.056 1.84 2.516v10.595h-2.358c-.187 0-.342.09-.351.206-.01.133-.237 3.283 1.785 4.593.524.34 1.279.57 2.003.57.723 0 1.478-.23 2.002-.57 2.022-1.31 1.796-4.46 1.785-4.593zm-4.165-10.211h.763l-.006 6.659h-.756l-.001-6.659zM13.95 7.65c0-.119.158-.216.352-.216h3.727c.194 0 .352.097.352.216 0 .12-.158.217-.352.217h-3.727c-.194 0-.352-.097-.352-.217zm.182.642c.056.005.112.009.17.009h3.727c.058 0 .115-.004.17-.01-.34.498-1.124.847-2.033.847-.91 0-1.693-.35-2.034-.846zm.324.93c.48.22 1.071.35 1.71.35.638 0 1.229-.13 1.71-.35-.23.26-.571.487-1.08.586-.15.029-.246.115-.244.208v.306h-.764v-.306c0-.092-.096-.178-.246-.207-.513-.098-.856-.326-1.086-.587zm3.203 16.039c-.423.274-.913.416-1.493.434-.58-.018-1.07-.16-1.493-.434-1.54-.997-1.615-3.355-1.6-4.066h2.365c.194 0 .352-.098.352-.217v-3.13h.754l-.003 3.13c0 .12.158.217.352.217h2.366c.014.71-.061 3.07-1.6 4.066z" fill="#AE5351"/></g></svg>