<svg width="35" height="35" viewBox="0 0 35 35" xmlns="http://www.w3.org/2000/svg"><title>Desktop Copy 8</title><g transform="translate(2 1.5)" fill="none" fill-rule="evenodd"><circle stroke="#AE5351" stroke-width="2" fill="#FFF" cx="16" cy="16" r="16"/><g fill="#AE5351"><path d="M20.184 18.734c-.142-.233-1.18-1.916-2.066-2.807-.74-.74-1.848-.761-1.973-.761l-.035.001h-.268c-.119 0-1.182.021-1.96.75-.958.9-2.02 2.716-2.094 2.844-.562.926-.907 1.528-.907 2.198 0 1.206.849 1.985 2.162 1.985h5.902c1.313 0 2.162-.78 2.162-1.987 0-.676-.346-1.277-.91-2.202a.509.509 0 0 0-.013-.021zm-1.239 3.276h-5.902c-.472 0-1.265-.136-1.265-1.051 0-.392.247-.84.77-1.703l.006-.008c.01-.018 1.054-1.815 1.93-2.637.533-.5 1.35-.51 1.358-.51h.329c.146.005.882.056 1.325.5.854.857 1.933 2.636 1.943 2.654a.44.44 0 0 0 .016.024c.557.915.755 1.308.755 1.677 0 .871-.688 1.054-1.265 1.054zM13.83 14.035c1.012 0 1.804-1.173 1.804-2.67 0-1.497-.792-2.67-1.805-2.67-1.012 0-1.804 1.173-1.804 2.67 0 1.497.792 2.67 1.804 2.67zm0-4.405c.429 0 .908.712.908 1.735 0 1.023-.479 1.735-.909 1.735-.429 0-.908-.712-.908-1.735 0-1.023.479-1.735.908-1.735zM11.466 17.246c.176 0 .345-.038.503-.114.787-.38 1.006-1.577.498-2.723-.393-.888-1.122-1.484-1.812-1.484-.177 0-.346.038-.503.113-.788.38-1.007 1.577-.5 2.725.394.887 1.123 1.483 1.814 1.483zm-1-1.875c-.303-.686-.217-1.35.062-1.484a.286.286 0 0 1 .127-.028c.281 0 .727.33.998.941.304.686.217 1.35-.06 1.484a.288.288 0 0 1-.127.028c-.282 0-.728-.33-1-.94zM18.158 14.035c1.012 0 1.804-1.173 1.804-2.67 0-1.497-.792-2.67-1.804-2.67-1.013 0-1.806 1.173-1.806 2.67 0 1.497.793 2.67 1.806 2.67zm0-4.405c.43 0 .908.712.908 1.735 0 1.023-.479 1.735-.908 1.735-.43 0-.91-.712-.91-1.735 0-1.023.48-1.735.91-1.735zM21.836 13.038a1.148 1.148 0 0 0-.503-.113c-.69 0-1.418.596-1.812 1.484-.51 1.145-.29 2.342.5 2.724.157.075.325.113.502.113.69 0 1.42-.596 1.813-1.484.508-1.147.288-2.344-.5-2.724zm-.315 2.333c-.27.61-.716.94-.998.94a.286.286 0 0 1-.125-.026c-.281-.136-.368-.8-.063-1.484.272-.612.717-.942.998-.942.047 0 .088.009.126.027.28.135.366.799.062 1.485z"/></g></g></svg>