<svg width="35" height="35" viewBox="0 0 35 35" xmlns="http://www.w3.org/2000/svg"><title>Desktop</title><g transform="translate(2 1)" fill="none" fill-rule="evenodd"><circle stroke="#AE5351" stroke-width="2" fill="#FFF" cx="16" cy="16" r="16"/><path d="M14.902 8.104c-3.056.355-6.103 2.916-6.229 6.578-.077 2.235.535 3.912 2.587 4.384.888-1.63-.286-1.986-.47-3.167-.753-4.827 5.37-8.123 8.578-4.75 2.222 2.335.758 9.516-2.82 8.77-3.427-.713 1.679-6.43-1.056-7.551-2.224-.913-3.404 2.788-2.35 4.628-.619 3.164-1.95 6.143-1.41 10.11 1.747-1.315 2.336-3.83 2.82-6.456.878.554 1.348 1.127 2.468 1.217 4.13.332 6.439-4.274 5.872-8.526-.502-3.768-4.125-5.687-7.99-5.237z" fill="#AE5351"/></g></svg>