<svg width="35" height="35" viewBox="0 0 35 35" xmlns="http://www.w3.org/2000/svg"><title>Desktop Copy 10</title><g transform="translate(1 1)" fill="none" fill-rule="evenodd"><circle stroke="#AE5351" stroke-width="2" cx="16" cy="16" r="16"/><g fill="#AE5351"><path d="M14.527 19.24h3.81v-1.257h-3.81v1.257zm.462-.775h2.885v.293H14.99v-.293zM14.527 16.02v1.612h3.81v-1.098c.554-.249.929-.829.929-1.468 0-.843-.63-1.535-1.424-1.594-.238-.58-.795-.973-1.41-.973-.401 0-.781.162-1.066.45a1.464 1.464 0 0 0-.422-.062c-.845 0-1.532.717-1.532 1.597 0 .718.467 1.344 1.115 1.536zm.417-2.652c.138 0 .273.028.402.083l.156.066.108-.135c.204-.255.504-.401.822-.401.47 0 .893.328 1.026.8l.051.18.224-.011c.591 0 1.071.5 1.071 1.116 0 .49-.314.929-.764 1.069l-.166.05v.966H14.99v-1.534l-.198-.03c-.523-.078-.918-.552-.918-1.103 0-.615.48-1.116 1.071-1.116z"/><path d="M20.034 8.287V6.12h-.462c0 1.025-3.7 2.167-9.008 2.167h-.23v17.332h12.01V8.287h-2.31zm-.462-1.301v1.3h-3.456c1.556-.299 2.815-.735 3.456-1.3zm2.31 18.151H10.795V8.768h11.087v16.37z" stroke="#AE5351"/></g></g></svg>