<svg width="35" height="35" viewBox="0 0 35 35" xmlns="http://www.w3.org/2000/svg"><title>Desktop Copy 11</title><g transform="translate(1 1.5)" fill="none" fill-rule="evenodd"><circle stroke="#AE5351" stroke-width="2" cx="16" cy="16" r="16"/><path d="M18.075 17.86c-.486.881-1.177 1.576-1.817 2.057 0 0-.077.053-.102.08-.768.56-1.485.828-1.792.694 0 0 .077-.107.23-.293.128-.187.333-.455.563-.748.23-.32.461-.695.717-1.095.256-.401.512-.855.768-1.283.256-.454.486-.881.691-1.308.205-.428.41-.828.563-1.176.154-.347.282-.64.359-.854.076-.214.128-.32.128-.32.204.106.358.4.435.827 0-.08.025 2.03-.743 3.419zm-3.25 1.683c.153-.347.332-.748.563-1.175.204-.428.46-.882.69-1.31.257-.453.513-.88.769-1.281.256-.401.512-.775.716-1.095.23-.321.41-.588.564-.748.128-.187.23-.267.23-.267-.64-.268-2.56.854-3.66 2.804-1.101 1.95-.896 4.06-.333 4.3 0 0 .051-.133.128-.32.077-.267.179-.561.333-.908zm6.169 3.152c.179-.374.255-.668.153-.855 0 0-.102.053-.256.187-.153.107-.384.267-.691.427a10.94 10.94 0 0 1-.973.561c-.358.187-.768.4-1.152.588-.41.187-.793.374-1.177.534-.384.16-.742.32-1.05.427-.307.107-.563.214-.767.267-.18.054-.308.08-.308.08.128.268.717.481 1.51.481h.129a5.49 5.49 0 0 0 2.278-.534c1.228-.614 2.33-2.217 2.304-2.163zm-5.274 1.602c.282-.187.615-.374.973-.587.359-.187.768-.401 1.152-.588.41-.187.794-.374 1.178-.534.383-.16.742-.294 1.049-.428.307-.106.589-.187.768-.267.18-.053.307-.08.307-.08-.256-.56-2.099-.801-3.84.054-1.766.854-2.738 2.564-2.508 3.045 0 0 .102-.08.256-.187.153-.107.384-.268.665-.428zm-2.636-.24c.384-.027.691-.134.793-.32 0 0-.102-.054-.281-.134a9.074 9.074 0 0 1-.717-.374c-.281-.16-.64-.374-.973-.588-.358-.213-.716-.48-1.1-.721-.359-.267-.717-.507-1.05-.775-.333-.267-.64-.507-.896-.72-.256-.214-.46-.401-.614-.535-.154-.134-.23-.214-.23-.214-.154.24 0 .882.41 1.603.025.027.025.053.05.08v.027a5.703 5.703 0 0 0 1.613 1.763c1.152.774 3.046.908 2.995.908zm-4.07-3.9c.281.16.64.374.998.588.359.213.717.48 1.1.72.36.268.718.508 1.05.776.333.267.64.507.896.72.256.214.461.401.615.562.153.133.23.213.23.213.333-.534-.435-2.297-2.048-3.419-1.612-1.121-3.532-1.121-3.814-.667 0 0 .103.053.282.133.153.08.41.214.69.374zM24.5 21.76c.384.08.691.053.845-.107 0 0-.077-.08-.23-.214-.154-.133-.359-.32-.615-.56-.256-.241-.512-.508-.819-.829-.281-.294-.589-.64-.896-.988a26.087 26.087 0 0 1-.844-1.015c-.256-.347-.512-.641-.692-.935a5.583 5.583 0 0 1-.46-.694c-.103-.16-.154-.267-.154-.267-.205.187-.23.854.026 1.656 0 .026.025.053.025.106v.027a6.166 6.166 0 0 0 1.152 2.11c.896 1.122 2.714 1.736 2.662 1.71zm-3.046-4.808c.256.24.538.507.82.828.281.294.588.641.895.988.307.347.589.695.845 1.015.256.347.512.641.691.935.205.267.358.508.46.695.103.16.154.267.154.267.436-.428.103-2.324-1.203-3.847-1.305-1.495-3.174-2.003-3.532-1.629 0 0 .102.08.23.187.18.134.41.32.64.56zm1.152-2.43c.384.106.691.133.845 0 0 0-.077-.08-.205-.241a7.23 7.23 0 0 1-.537-.614c-.23-.268-.461-.561-.743-.909-.256-.347-.537-.694-.793-1.068-.256-.374-.512-.748-.743-1.095-.23-.347-.435-.695-.614-.988-.18-.294-.307-.561-.41-.722a1.349 1.349 0 0 1-.128-.293c-.23.187-.307.828-.153 1.656 0 .026 0 .053.025.106v.027c.128.695.436 1.496.948 2.217.819 1.149 2.56 1.95 2.508 1.923zm-2.56-5.13c.23.268.461.562.743.909.256.347.537.694.793 1.068.256.374.512.748.743 1.096.23.373.435.694.614 1.015.18.293.307.56.384.747.102.187.128.294.128.294.486-.374.333-2.297-.82-3.953-1.151-1.63-2.943-2.324-3.353-2.003 0 0 .077.08.23.214.129.16.334.373.538.614zm-8.652 8.334c.384.107.692.107.845 0 0 0-.077-.08-.205-.24a7.23 7.23 0 0 1-.537-.614c-.23-.267-.46-.561-.742-.908-.256-.348-.538-.695-.794-1.069s-.512-.748-.742-1.095c-.23-.347-.435-.694-.615-.988-.179-.294-.307-.561-.41-.721a1.349 1.349 0 0 1-.127-.294c-.23.187-.307.828-.154 1.656 0 .027 0 .053.026.107v.026c.128.695.435 1.496.947 2.217.82 1.149 2.56 1.95 2.508 1.923zm-2.56-5.101c.231.267.487.56.743.908.256.347.538.694.794 1.068.256.374.512.748.742 1.095.23.348.435.695.614.989.18.294.307.56.384.721.103.187.128.294.128.294.487-.374.333-2.297-.819-3.953-1.152-1.63-2.944-2.324-3.379-1.977 0 0 .077.08.23.214.129.16.333.374.564.64zm6.733.374c.384.053.691-.027.819-.187 0 0-.102-.054-.256-.187a10.87 10.87 0 0 1-.64-.508c-.256-.213-.563-.454-.896-.748-.307-.267-.64-.587-.973-.881-.332-.32-.64-.641-.921-.935-.282-.32-.563-.588-.768-.855-.23-.267-.41-.48-.512-.64-.128-.16-.18-.241-.18-.241-.178.214-.153.881.154 1.656 0 .027.026.053.026.08v.027a5.806 5.806 0 0 0 1.331 2.003c1.024.988 2.893 1.442 2.816 1.416zm-3.43-4.514c.256.213.563.454.896.748.307.267.64.587.972.881.333.32.64.641.922.935.281.32.563.614.768.855.23.267.41.48.512.64.128.16.179.268.179.268.41-.454-.077-2.324-1.51-3.713-1.434-1.389-3.328-1.683-3.66-1.282 0 0 .102.053.255.187.18.107.41.267.666.48z" fill="#AE5351"/></g></svg>