<?xml version="1.0" encoding="UTF-8" standalone="no"?>
<svg width="35px" height="35px" viewBox="0 0 35 35" version="1.1" xmlns="http://www.w3.org/2000/svg" xmlns:xlink="http://www.w3.org/1999/xlink" xmlns:sketch="http://www.bohemiancoding.com/sketch/ns">
    <!-- Generator: Sketch 3.3.3 (12081) - http://www.bohemiancoding.com/sketch -->
    <title>Desktop Copy 6</title>
    <desc>Created with Sketch.</desc>
    <defs></defs>
    <g id="Page-1" stroke="none" stroke-width="1" fill="none" fill-rule="evenodd" sketch:type="MSPage">
        <g id="Desktop-Copy-6" sketch:type="MSArtboardGroup">
            <g id="Oval-1-Copy-9-+-bag" sketch:type="MSLayerGroup" transform="translate(1.000000, 2.000000)">
                <circle id="Oval-1-Copy-9" stroke="#AE5351" stroke-width="2" sketch:type="MSShapeGroup" cx="16" cy="16" r="16"></circle>
                <g id="bag" transform="translate(9.333333, 6.956522)" fill="#AE5351" sketch:type="MSShapeGroup">
                    <g id="Group" transform="translate(2.724458, 4.901262)">
                        <path d="M6.93362229,3.58798373 C6.91203302,3.52383359 6.86427245,3.47794391 6.80767802,3.45686414 L6.80796698,3.45595329 C6.2255934,3.23921343 5.43508772,3.69689584 5.05985552,4.09112209 C4.7226419,4.44535752 4.6495356,4.96233219 4.85564499,5.33452445 L4.15467492,6.07266312 L4.15467492,4.64782734 C4.63298246,4.5337971 4.99438596,4.0315696 4.99438596,3.43096987 C4.99438596,2.66056094 4.62844169,1.6456528 4.0371517,1.3494084 C3.97865841,1.32013096 3.91413829,1.32316714 3.8598968,1.35027588 L3.85952528,1.3494084 C3.26815273,1.64560943 2.9021259,2.66051757 2.9021259,3.43096987 C2.9021259,4.0315696 3.26357069,4.53375373 3.7419195,4.64778396 L3.7419195,6.06116901 L3.04631579,5.32879908 C3.25234262,4.95665019 3.17915377,4.4397189 2.84206398,4.08548347 C2.46691434,3.69130059 1.67640867,3.23361818 1.09395253,3.45035804 L1.09428277,3.4512689 C1.03768834,3.47239203 0.98996904,3.51823835 0.968338493,3.58234512 C0.761857585,4.1945257 1.19748194,5.02500761 1.57271414,5.41923387 C1.78443756,5.64169909 2.05733746,5.75516547 2.31888545,5.75516547 C2.47298246,5.75516547 2.62266254,5.7147409 2.75397317,5.6350195 L3.7419195,6.67512793 L3.7419195,7.21817037 C3.7419195,7.33792597 3.83430341,7.43504035 3.94831785,7.43504035 C4.0623323,7.43504035 4.1547162,7.33792597 4.1547162,7.21817037 L4.1547162,6.68666542 L5.14807018,5.64070149 C5.2793808,5.7204229 5.42901961,5.76076071 5.58311662,5.76076071 C5.84462332,5.76076071 6.11760578,5.64729434 6.32928793,5.42487248 C6.70443756,5.03073298 7.14002064,4.20020769 6.93362229,3.58798373 L6.93362229,3.58798373 Z M1.86452012,5.11249296 C1.55628483,4.78870608 1.28982456,4.20840538 1.33391125,3.8345649 C1.68965944,3.78824148 2.24189886,4.06835075 2.55013416,4.39213763 C2.71847265,4.56901679 2.7827451,4.80666291 2.73382869,4.99985069 L2.22930857,4.46864936 C2.14881321,4.38380982 2.01816305,4.38372307 1.93742002,4.46834574 C1.85675955,4.55292503 1.85659443,4.69020373 1.93713106,4.7749999 L2.44140351,5.30594099 C2.25783282,5.35660181 2.03240454,5.28898175 1.86452012,5.11249296 L1.86452012,5.11249296 Z M3.31488132,3.43092649 C3.31488132,2.84741612 3.57085655,2.07418788 3.94827657,1.79616057 C4.32569659,2.07423126 4.58158927,2.84745949 4.58158927,3.43092649 C4.58158927,3.78399082 4.40272446,4.08405213 4.15467492,4.1935281 L4.15467492,3.19709728 C4.15467492,3.07734167 4.06229102,2.9802273 3.94827657,2.9802273 C3.83426213,2.9802273 3.74187822,3.07734167 3.74187822,3.19709728 L3.74187822,4.1935281 C3.49378741,4.08400876 3.31488132,3.78394745 3.31488132,3.43092649 L3.31488132,3.43092649 Z M6.03731682,5.11813158 C5.8694324,5.294577 5.64412797,5.36224043 5.460516,5.31162298 L5.97011352,4.77504327 C6.05065015,4.69024711 6.05048504,4.55292503 5.96982456,4.46838911 C5.88908153,4.38376645 5.75843137,4.38389657 5.67793602,4.46869273 L5.16804954,5.00557606 C5.11909185,4.81243165 5.18336429,4.57474215 5.35174407,4.39781962 C5.65993808,4.07403274 6.21205366,3.79383672 6.5679257,3.84020352 C6.61205366,4.21408737 6.34555212,4.79438807 6.03731682,5.11813158 L6.03731682,5.11813158 Z" id="Shape"></path>
                        <path d="M3.94827657,8.2896382 C1.77432405,8.2896382 0.00565531476,6.43127932 0.00565531476,4.14707455 C0.00565531476,1.86286977 1.77432405,0.00451089563 3.94827657,0.00451089563 C6.1222291,0.00451089563 7.89089783,1.86286977 7.89089783,4.14707455 C7.89085655,6.4313227 6.1222291,8.2896382 3.94827657,8.2896382 L3.94827657,8.2896382 Z M3.94827657,0.43825086 C2.00194014,0.43825086 0.418452012,2.10203399 0.418452012,4.14707455 C0.418452012,6.19215848 2.00189886,7.85589824 3.94827657,7.85589824 C5.89465428,7.85589824 7.47810114,6.19215848 7.47810114,4.14707455 C7.47805986,2.10203399 5.894613,0.43825086 3.94827657,0.43825086 L3.94827657,0.43825086 Z" id="Shape"></path>
                    </g>
                    <path d="M12.2320743,15.6723695 C11.9843137,15.548103 11.7453457,15.5415535 11.5552941,15.5727394 C12.5560784,11.2982755 12.556161,6.79943781 11.5555418,2.52488708 C11.614324,2.53451611 11.6774407,2.54076196 11.7445201,2.54076196 C11.8940764,2.54076196 12.0611352,2.51092065 12.2320743,2.42521364 C12.7732095,2.15386592 13.1392776,1.43667688 13.3069556,0.29151663 C13.3376677,0.0817599833 13.1403096,0.0356534251 13.0710423,0.0443282244 L13.0708772,0.0434607444 C11.9817131,0.224286936 11.2984933,0.604286519 11.040289,1.17287624 C10.95129,1.36888333 10.9262745,1.55946867 10.9317234,1.72719591 C10.7092673,1.63433219 10.4017337,1.54355041 9.9772549,1.46057596 C9.09263158,1.28764383 7.91909185,1.19239454 6.6726935,1.19239454 C5.42633643,1.19239454 4.25275542,1.28764383 3.36804954,1.46057596 C2.94390093,1.54350704 2.63649123,1.63420206 2.41411765,1.72702242 C2.419484,1.55938192 2.39405573,1.36870983 2.30509804,1.17291961 C2.0468937,0.604286519 1.36367389,0.22433031 0.274551084,0.0434607444 L0.274385965,0.0443715984 C0.128627451,0.0411619226 0.0206811146,0.173192368 0.0384726522,0.29151663 C0.210526316,1.4359829 0.572218782,2.15386592 1.11335397,2.42521364 C1.28429309,2.51096403 1.45135191,2.54076196 1.60090815,2.54076196 C1.66794634,2.54076196 1.73106295,2.53455948 1.78980392,2.52497383 C0.789267286,6.79948118 0.789349845,11.2982755 1.7900516,15.5727394 C1.6,15.5415969 1.3604128,15.5468452 1.11335397,15.6723695 C0.461919505,16.0033999 0.035872033,17.5604396 0.0384726522,17.8737733 C0.0393395253,17.9819047 0.142249742,18.0567682 0.242063983,18.0567682 C0.451062951,18.0567682 2.03822497,17.6176933 2.30513932,16.9247069 C2.38270382,16.7233214 2.41960784,16.5375072 2.41415893,16.3696499 C2.63661507,16.4624702 2.94394221,16.5531219 3.36809082,16.6360963 C4.2527967,16.8090718 5.42633643,16.9043211 6.67265222,16.9043211 C7.91900929,16.9043211 9.0925903,16.8091152 9.97729618,16.6360963 C10.4015686,16.5531653 10.7090609,16.4624269 10.9314345,16.3695631 C10.925903,16.5374639 10.9512487,16.728483 11.0403302,16.9247069 C11.2985759,17.4932966 11.9836533,17.861325 13.0709185,18.0541224 C13.1155831,18.0620598 13.135356,18.0541224 13.135356,18.0541224 C13.247967,18.0353848 13.3248297,17.9243474 13.3069969,17.8060665 C13.1349432,16.6616003 12.7732508,15.9437172 12.2320743,15.6723695 L12.2320743,15.6723695 Z M11.4128793,1.35968804 C11.5855108,0.979645084 12.0787616,0.694374309 12.8463983,0.527210927 C12.687967,1.33019372 12.4182043,1.84816599 12.0587822,2.03150787 C11.7846027,2.17134564 11.5208669,2.08468439 11.4114345,2.03601877 C11.3664396,1.92246564 11.283839,1.64383109 11.4128793,1.35968804 L11.4128793,1.35968804 Z M3.56780186,1.86360713 C4.4130031,1.71045355 5.51562436,1.6261345 6.67273478,1.6261345 C7.82976264,1.6261345 8.93246646,1.71045355 9.77758514,1.86365051 C10.7532301,2.04044292 11.0499071,2.25019956 11.0864396,2.32137629 C11.0864809,2.32159316 11.0865222,2.32181003 11.0865635,2.32207027 C11.0867699,2.32688479 11.1396491,2.56266583 11.1625593,2.66095131 C10.9192157,2.55741758 10.5642518,2.45444771 10.0439628,2.36110687 C9.13098039,2.19728329 7.93370485,2.10706537 6.67265222,2.10706537 C5.41242518,2.10706537 4.21568627,2.19719654 3.30278638,2.36089 C2.78163055,2.45431759 2.42637771,2.5573742 2.18282766,2.66090793 C2.20573787,2.56266583 2.25890609,2.32163653 2.25894737,2.32141966 C2.29547988,2.25015619 2.59223942,2.04039954 3.56780186,1.86360713 L3.56780186,1.86360713 Z M1.29110423,2.03376332 C0.929411765,1.85241664 0.657915377,1.33409738 0.498823529,0.527514545 C1.26299278,0.693983943 1.75591331,0.977389636 1.93040248,1.35500365 C2.06373581,1.64352747 1.98084623,1.92112105 1.9348194,2.03523804 C1.82687307,2.08251569 1.56160991,2.16943718 1.29110423,2.03376332 L1.29110423,2.03376332 Z M1.9325903,16.7379385 C1.75995872,17.1179381 1.26670795,17.4032522 0.499112487,17.5703288 C0.65754386,16.7673461 0.927265222,16.2494605 1.28668731,16.0660319 C1.56082559,15.9261508 1.82452012,16.0127686 1.93403509,16.061521 C1.97902993,16.1750308 2.06167183,16.4537521 1.9325903,16.7379385 L1.9325903,16.7379385 Z M11.0864396,15.775296 C11.0499071,15.8465595 10.7531476,16.0563161 9.77750258,16.2331085 C8.9323839,16.3861754 7.82968008,16.4705812 6.67265222,16.4705812 C5.51562436,16.4705812 4.4130031,16.3862187 3.56788442,16.2331085 C2.59223942,16.0563161 2.29547988,15.8465595 2.25894737,15.775296 C2.25890609,15.7750358 2.20590299,15.5340498 2.18299278,15.4358077 C2.42633643,15.5393415 2.78125903,15.6423113 3.30150671,15.7356522 C4.21448916,15.8994758 5.41184727,15.989737 6.67281734,15.989737 C7.93296182,15.989737 9.12978328,15.8996059 10.0426832,15.7358257 C10.5636739,15.6424415 10.9189267,15.5394282 11.1623942,15.4358945 C11.139484,15.5341366 11.0864396,15.7750358 11.0864396,15.775296 L11.0864396,15.775296 Z M9.91124871,15.3192184 C9.02881321,15.4718949 7.87872033,15.5559971 6.67281734,15.5559971 C5.46683179,15.5559971 4.31682147,15.4718515 3.43438596,15.3193052 C2.39223942,15.1390429 2.08425181,14.9221729 2.05473684,14.8578492 C2.05465428,14.857589 2.05448916,14.8573287 2.05444788,14.8570685 C1.25098039,11.039246 1.25114551,7.05859744 2.0544066,3.24073152 C2.0903612,3.1702054 2.40235294,2.95593786 3.43413829,2.77745386 C4.31657379,2.6247774 5.46674923,2.54071859 6.67265222,2.54071859 C7.87863777,2.54071859 9.02873065,2.6247774 9.91108359,2.77741049 C10.9511249,2.95728245 11.2599381,3.17358857 11.290485,3.23838932 C12.0941589,7.05638536 12.0945717,11.0372941 11.2913106,14.8553335 C11.256677,14.9254259 10.9456347,15.1402573 9.91124871,15.3192184 L9.91124871,15.3192184 Z M11.4150258,16.7425795 C11.2816925,16.4540123 11.364582,16.1763754 11.4106089,16.0622584 C11.5185552,16.0150241 11.7838184,15.928146 12.054324,16.0638198 C12.4160165,16.2451231 12.6875129,16.763399 12.8466047,17.5700252 C12.0824355,17.4035992 11.589515,17.1201501 11.4150258,16.7425795 L11.4150258,16.7425795 Z" id="Shape" stroke="#AE5351" stroke-width="4"></path>
                </g>
            </g>
        </g>
    </g>
</svg>