<?xml version="1.0" encoding="UTF-8" standalone="no"?>
<svg width="35px" height="35px" viewBox="0 0 35 35" version="1.1" xmlns="http://www.w3.org/2000/svg" xmlns:xlink="http://www.w3.org/1999/xlink" xmlns:sketch="http://www.bohemiancoding.com/sketch/ns">
    <!-- Generator: Sketch 3.3.3 (12081) - http://www.bohemiancoding.com/sketch -->
    <title>Desktop Copy 9</title>
    <desc>Created with Sketch.</desc>
    <defs></defs>
    <g id="Page-1" stroke="none" stroke-width="1" fill="none" fill-rule="evenodd" sketch:type="MSPage">
        <g id="Desktop-Copy-9" sketch:type="MSArtboardGroup">
            <g id="Oval-1-Copy-5-+-Shape-+-Shape" sketch:type="MSLayerGroup" transform="translate(2.000000, 1.500000)">
                <circle id="Oval-1-Copy-5" stroke="#AE5351" stroke-width="2" sketch:type="MSShapeGroup" cx="16" cy="16" r="16"></circle>
                <g id="Shape-+-Shape" transform="translate(9.333333, 6.956522)" fill="#AE5351" sketch:type="MSShapeGroup">
                    <path d="M6.66666667,18.4347826 C10.3428571,18.4347826 13.3333333,15.2542762 13.3333333,11.3444816 C13.3333333,7.090301 9.21904762,2.69431438 7.00952381,0.344386049 C6.81904762,0.14180602 6.51428571,0.14180602 6.34285714,0.344386049 C4.11428571,2.69431438 0,7.090301 0,11.3444816 C0,15.2542762 2.99047619,18.4347826 6.66666667,18.4347826 L6.66666667,18.4347826 Z M6.66666667,1.4180602 C8.83809524,3.72747253 12.3809524,7.69804109 12.3809524,11.3444816 C12.3809524,14.6870521 9.80952381,17.4218825 6.66666667,17.4218825 C3.52380952,17.4218825 0.952380952,14.6870521 0.952380952,11.3444816 C0.952380952,7.69804109 4.4952381,3.74773053 6.66666667,1.4180602 L6.66666667,1.4180602 Z" id="Shape"></path>
                    <path d="M6.66666667,16.1658863 C6.8,16.1658863 6.91428571,16.0443383 6.91428571,15.9025323 C6.91428571,15.7607262 6.8,15.6391782 6.66666667,15.6391782 C4.43809524,15.6391782 2.60952381,13.7146679 2.60952381,11.3242236 C2.60952381,11.1824176 2.4952381,11.0608696 2.36190476,11.0608696 C2.22857143,11.0608696 2.11428571,11.1824176 2.11428571,11.3242236 C2.15238095,13.99828 4.17142857,16.1658863 6.66666667,16.1658863 L6.66666667,16.1658863 Z" id="Shape"></path>
                </g>
            </g>
        </g>
    </g>
</svg>