<?xml version="1.0" encoding="UTF-8" standalone="no"?>
<svg width="35px" height="35px" viewBox="0 0 35 35" version="1.1" xmlns="http://www.w3.org/2000/svg" xmlns:xlink="http://www.w3.org/1999/xlink" xmlns:sketch="http://www.bohemiancoding.com/sketch/ns">
    <!-- Generator: Sketch 3.3.3 (12081) - http://www.bohemiancoding.com/sketch -->
    <title>Desktop Copy 7</title>
    <desc>Created with Sketch.</desc>
    <defs></defs>
    <g id="Page-1" stroke="none" stroke-width="1" fill="none" fill-rule="evenodd" sketch:type="MSPage">
        <g id="Desktop-Copy-7" sketch:type="MSArtboardGroup">
            <g id="Oval-1-Copy-3-+-Shape" sketch:type="MSLayerGroup" transform="translate(2.000000, 1.500000)">
                <circle id="Oval-1-Copy-3" stroke="#AE5351" stroke-width="2" sketch:type="MSShapeGroup" cx="16" cy="16" r="16"></circle>
                <path d="M23.8009503,16.0398371 C23.8009503,16.3618325 23.5540872,16.6194288 23.2455082,16.6194288 L23.1426486,16.6194288 L20.941916,23.4231359 C20.8596283,23.6591045 20.6540637,23.8095304 20.4277724,23.8095304 L11.8093709,23.8095304 C11.5830797,23.8095304 11.377515,23.6591045 11.2950726,23.4231359 L9.01205237,16.6194288 L8.88862078,16.6194288 C8.58004182,16.6194288 8.33333333,16.3618325 8.33333333,16.0398371 C8.33333333,15.7178416 8.5801965,15.4604067 8.88862078,15.4604067 L13.3725283,15.4604067 L14.3803982,12.6058647 C14.2159774,12.3912011 14.1542616,12.1121383 14.2363947,11.8547034 L15.0591172,9.5151927 C15.1619769,9.19319726 15.4499839,9 15.7585629,9 L16.3755661,9 C16.6841451,9 16.9719974,9.19319726 17.0748571,9.5150313 L17.8975796,11.854542 C17.9798674,12.1121383 17.9181516,12.3910397 17.7535761,12.6057033 L18.761446,15.4602453 L23.2453535,15.4602453 C23.5540872,15.4604067 23.8009503,15.7178416 23.8009503,16.0398371 L23.8009503,16.0398371 Z M10.2050697,16.6194288 L10.698796,18.100285 L12.7966689,18.100285 L12.5498057,16.6194288 L10.2050697,16.6194288 L10.2050697,16.6194288 Z M11.4596481,20.3752353 L13.166809,20.3752353 L12.9199458,18.8729127 L10.9455045,18.8729127 L11.4596481,20.3752353 L11.4596481,20.3752353 Z M12.2208095,22.6503469 L13.5578303,22.6503469 L13.3109672,21.1480243 L11.7065113,21.1480243 L12.2208095,22.6503469 L12.2208095,22.6503469 Z M13.2902406,16.6194288 L13.5371037,18.100285 L15.6968471,18.100285 L15.6968471,16.6194288 L13.2902406,16.6194288 L13.2902406,16.6194288 Z M13.9279704,20.3752353 L15.6968471,20.3752353 L15.6968471,18.8729127 L13.6811072,18.8729127 L13.9279704,20.3752353 L13.9279704,20.3752353 Z M14.051402,21.1480243 L14.3188371,22.6503469 L15.6970018,22.6503469 L15.6970018,21.1480243 L14.051402,21.1480243 L14.051402,21.1480243 Z M14.1542616,15.4604067 L17.980022,15.4604067 L17.0748571,12.863461 C16.807422,12.8205283 16.6017027,12.6487974 16.498843,12.3697347 L16.0669872,11.1248471 L15.6351313,12.3697347 C15.5322716,12.6487974 15.3265523,12.8203669 15.0592719,12.863461 L14.1542616,15.4604067 L14.1542616,15.4604067 Z M18.5970253,18.1001236 L18.8438884,16.6192674 L16.4374366,16.6192674 L16.4374366,18.1001236 L18.5970253,18.1001236 L18.5970253,18.1001236 Z M18.4531764,18.8730741 L16.4374366,18.8730741 L16.4374366,20.3753967 L18.2064679,20.3753967 L18.4531764,18.8730741 L18.4531764,18.8730741 Z M16.4374366,22.6503469 L17.8154466,22.6503469 L18.0828817,21.1480243 L16.4374366,21.1480243 L16.4374366,22.6503469 L16.4374366,22.6503469 Z M20.5100602,21.1480243 L18.8233165,21.1480243 L18.5764533,22.6503469 L20.0161791,22.6503469 L20.5100602,21.1480243 L20.5100602,21.1480243 Z M21.229923,18.8730741 L19.2141832,18.8730741 L18.9467481,20.3753967 L20.7567686,20.3753967 L21.229923,18.8730741 L21.229923,18.8730741 Z M21.9703579,16.6194288 L19.5843233,16.6194288 L19.3374601,18.100285 L21.4972035,18.100285 L21.9703579,16.6194288 L21.9703579,16.6194288 Z" id="Shape" fill="#AE5351" sketch:type="MSShapeGroup"></path>
            </g>
        </g>
    </g>
</svg>