<?xml version="1.0" encoding="UTF-8" standalone="no"?>
<svg width="35px" height="35px" viewBox="0 0 35 35" version="1.1" xmlns="http://www.w3.org/2000/svg" xmlns:xlink="http://www.w3.org/1999/xlink" xmlns:sketch="http://www.bohemiancoding.com/sketch/ns">
    <!-- Generator: Sketch 3.3.3 (12081) - http://www.bohemiancoding.com/sketch -->
    <title>Desktop Copy</title>
    <desc>Created with Sketch.</desc>
    <defs></defs>
    <g id="Page-1" stroke="none" stroke-width="1" fill="none" fill-rule="evenodd" sketch:type="MSPage">
        <g id="Desktop-Copy" sketch:type="MSArtboardGroup">
            <g id="Oval-1-Copy-11-+-social-(5)" sketch:type="MSLayerGroup" transform="translate(2.000000, 1.000000)">
                <circle id="Oval-1-Copy-11" stroke="#AE5351" stroke-width="2" fill="#FFFFFF" sketch:type="MSShapeGroup" cx="16" cy="16" r="16"></circle>
                <g id="social-(5)" transform="translate(11.333333, 8.347826)" fill="#AE5351" sketch:type="MSShapeGroup">
                    <path d="M8.19065409,0.00344240251 L6.1523522,0 C3.86238994,0 2.38251572,1.59813537 2.38251572,4.07167369 L2.38251572,5.9489879 L0.33309434,5.9489879 C0.156,5.9489879 0.012591195,6.10010937 0.012591195,6.28651546 L0.012591195,9.00652981 C0.012591195,9.1929359 0.156163522,9.34388525 0.33309434,9.34388525 L2.38251572,9.34388525 L2.38251572,16.2073474 C2.38251572,16.3937535 2.52592453,16.5447028 2.70301887,16.5447028 L5.37693082,16.5447028 C5.55402516,16.5447028 5.69743396,16.3935814 5.69743396,16.2073474 L5.69743396,9.34388525 L8.09368553,9.34388525 C8.27077987,9.34388525 8.41418868,9.1929359 8.41418868,9.00652981 L8.41516981,6.28651546 C8.41516981,6.197013 8.38132075,6.11129718 8.32130818,6.04795697 C8.2612956,5.98461676 8.17953459,5.9489879 8.09450314,5.9489879 L5.69743396,5.9489879 L5.69743396,4.35756522 C5.69743396,3.59266338 5.87060377,3.20436038 6.8172327,3.20436038 L8.19032704,3.20384402 C8.36725786,3.20384402 8.51066667,3.05272255 8.51066667,2.86648857 L8.51066667,0.340797848 C8.51066667,0.154735993 8.36742138,0.00378664276 8.19065409,0.00344240251 L8.19065409,0.00344240251 Z" id="Shape"></path>
                </g>
            </g>
        </g>
    </g>
</svg>