<?xml version="1.0" encoding="UTF-8" standalone="no"?>
<svg width="35px" height="35px" viewBox="0 0 35 35" version="1.1" xmlns="http://www.w3.org/2000/svg" xmlns:xlink="http://www.w3.org/1999/xlink" xmlns:sketch="http://www.bohemiancoding.com/sketch/ns">
    <!-- Generator: Sketch 3.3.3 (12081) - http://www.bohemiancoding.com/sketch -->
    <title>Desktop Copy 2</title>
    <desc>Created with Sketch.</desc>
    <defs></defs>
    <g id="Page-1" stroke="none" stroke-width="1" fill="none" fill-rule="evenodd" sketch:type="MSPage">
        <g id="Desktop-Copy-2" sketch:type="MSArtboardGroup">
            <g id="Oval-1-Copy-12-+-Shape-+-Shape" sketch:type="MSLayerGroup" transform="translate(2.000000, 2.000000)">
                <circle id="Oval-1-Copy-12" stroke="#9F504E" stroke-width="2" fill="#FFFFFF" sketch:type="MSShapeGroup" cx="16" cy="16" r="16"></circle>
                <path d="M18.7470667,9.39130435 L15.3440351,9.39130435 C13.827614,9.39130435 12.7779088,9.73915912 11.8331298,10.5557544 C11.0900982,11.226485 10.6466667,12.2012801 10.6466667,13.1634316 C10.6466667,14.6458234 11.7268772,16.2211923 13.7285825,16.2211923 C13.9210456,16.2211923 14.1341404,16.2005307 14.3221825,16.182182 L14.2944772,16.2526472 C14.214014,16.454329 14.1378246,16.6446006 14.1378246,16.9415724 C14.1378246,17.5197884 14.404414,17.8764321 14.6621614,18.2210489 L14.6945825,18.2646849 L14.6369614,18.2688481 C13.8103719,18.3280574 12.2718456,18.4384581 11.148014,19.1611511 C9.82066667,19.9868436 9.71750877,21.187991 9.71750877,21.5363084 C9.71750877,22.9221766 10.9518667,24.3209969 13.7097193,24.3209969 C16.9164561,24.3209969 18.594393,22.4699346 18.594393,20.6415383 C18.5946877,19.2891295 17.8367719,18.6214827 17.0322877,17.912667 L16.3536561,17.360355 C16.1439509,17.1785639 15.882814,16.9523658 15.882814,16.5332748 C15.882814,16.1212766 16.1439509,15.8492837 16.3744351,15.6093626 L16.3984561,15.5839211 C17.1313193,14.9799552 17.9618877,14.2951932 17.9618877,12.814035 C17.9618877,11.3248588 17.0725193,10.5552918 16.6448561,10.1853877 L17.7741404,10.1853877 C17.787993,10.1853877 17.8018456,10.1813788 17.8133404,10.173515 L18.7861193,9.53362259 C18.8138246,9.51527387 18.826793,9.47996414 18.8176561,9.44696728 C18.8089614,9.41397042 18.7797825,9.39130435 18.7470667,9.39130435 L18.7470667,9.39130435 Z M14.6203088,23.5051726 C12.665614,23.5051726 11.3522667,22.5499597 11.3522667,21.1281649 C11.3522667,20.1997813 11.8894246,19.5251959 12.9473825,19.1241452 C13.7946035,18.8257857 14.8882246,18.8109834 14.8991298,18.8109834 C15.0843719,18.8109834 15.1775088,18.8109834 15.3254667,18.8304115 C16.693193,19.8488427 17.3507509,20.3835769 17.3507509,21.4020081 C17.3506035,22.6993707 16.3042877,23.5051726 14.6203088,23.5051726 L14.6203088,23.5051726 Z M14.6018877,15.6755105 C12.9613825,15.6755105 12.2805404,13.4192344 12.2805404,12.2111484 C12.2805404,11.5968516 12.4140561,11.1253357 12.6887509,10.7693088 C12.9868772,10.3790515 13.4973614,10.1269494 13.9892772,10.1269494 C15.4955298,10.1269494 16.3284561,12.2452246 16.3284561,13.7092676 C16.3284561,13.9402456 16.3284561,14.6428938 15.8645404,15.1309081 C15.5525614,15.4567136 15.0451719,15.6755105 14.6018877,15.6755105 L14.6018877,15.6755105 Z" id="Shape" fill="#AE5351" sketch:type="MSShapeGroup"></path>
                <path d="M21.3901333,16.0164554 L21.3901333,14.1468902 C21.3901333,14.1043335 21.3569754,14.0697947 21.3164491,14.0697947 L20.5451228,14.0697947 C20.5044491,14.0697947 20.4714386,14.1043335 20.4714386,14.1468902 L20.4714386,16.0164554 L18.6872491,16.0164554 C18.6465754,16.0164554 18.6135649,16.0509942 18.6135649,16.0935509 L18.6135649,16.9113797 C18.6135649,16.9537822 18.6465754,16.9884751 18.6872491,16.9884751 L20.4714386,16.9884751 L20.4714386,18.8700672 C20.4714386,18.9124697 20.5044491,18.9471627 20.5451228,18.9471627 L21.3164491,18.9471627 C21.3569754,18.9471627 21.3901333,18.9124697 21.3901333,18.8700672 L21.3901333,16.9881667 L23.1833123,16.9881667 C23.223986,16.9881667 23.2569965,16.9537822 23.2569965,16.9110713 L23.2569965,16.0935509 C23.2569965,16.05084 23.2241333,16.0164554 23.1833123,16.0164554 L21.3901333,16.0164554 Z" id="Shape" fill="#AE5351" sketch:type="MSShapeGroup"></path>
            </g>
        </g>
    </g>
</svg>