<?xml version="1.0" encoding="utf-8"?>
<!-- Generator: Adobe Illustrator 17.0.0, SVG Export Plug-In . SVG Version: 6.00 Build 0)  -->
<!DOCTYPE svg PUBLIC "-//W3C//DTD SVG 1.1//EN" "http://www.w3.org/Graphics/SVG/1.1/DTD/svg11.dtd">
<svg version="1.1" id="Capa_1" xmlns="http://www.w3.org/2000/svg" xmlns:xlink="http://www.w3.org/1999/xlink" x="0px" y="0px"
	 width="756.756px" height="248.709px" viewBox="0 0 756.756 248.709" enable-background="new 0 0 756.756 248.709"
	 xml:space="preserve">
<g id="XMLID_73_" enable-background="new    ">
	<path id="XMLID_89_" fill="#A0833B" d="M240.508,95.258v58.737h-11.334v-25.066h-26.638v25.066H191.12V95.258h11.417v23.743h26.638
		V95.258H240.508z"/>
	<path id="XMLID_87_" fill="#A0833B" d="M292.379,144.316c2.701,0,4.977-0.55,6.825-1.654c1.847-1.103,3.336-2.536,4.467-4.302
		c1.13-1.765,1.93-3.791,2.399-6.08c0.468-2.288,0.703-4.646,0.703-7.073V95.258h11.334v29.948c0,4.026-0.483,7.805-1.448,11.333
		c-0.966,3.53-2.482,6.618-4.55,9.266s-4.729,4.744-7.983,6.288c-3.255,1.544-7.143,2.316-11.665,2.316
		c-4.688,0-8.673-0.813-11.954-2.44c-3.282-1.627-5.944-3.777-7.983-6.453c-2.041-2.675-3.516-5.777-4.426-9.307
		c-0.91-3.529-1.365-7.198-1.365-11.003V95.258h11.417v29.948c0,2.481,0.234,4.867,0.703,7.155c0.468,2.29,1.268,4.316,2.399,6.081
		c1.129,1.766,2.606,3.185,4.426,4.261C287.498,143.779,289.731,144.316,292.379,144.316z"/>
	<path id="XMLID_85_" fill="#A0833B" d="M385.199,143.986v10.01h-40.785V95.258h40.041v10.011h-28.624v14.146h24.736v9.266h-24.736
		v15.305H385.199z"/>
	<path id="XMLID_82_" fill="#A0833B" d="M409.272,153.996V95.258h25.977c2.701,0,5.197,0.566,7.486,1.696
		c2.288,1.131,4.261,2.62,5.915,4.467c1.655,1.849,2.95,3.944,3.889,6.288c0.938,2.345,1.406,4.702,1.406,7.073
		c0,3.805-0.951,7.267-2.854,10.382c-1.902,3.117-4.481,5.364-7.734,6.742l13.815,22.089h-12.905l-12.327-19.689h-11.251v19.689
		H409.272z M420.688,124.296H435c1.047,0,2.026-0.248,2.937-0.745c0.91-0.496,1.696-1.171,2.357-2.026
		c0.662-0.854,1.186-1.861,1.572-3.02c0.385-1.158,0.579-2.399,0.579-3.723c0-1.378-0.221-2.647-0.662-3.806
		c-0.442-1.158-1.034-2.164-1.778-3.02c-0.745-0.854-1.601-1.517-2.564-1.985c-0.966-0.469-1.944-0.703-2.938-0.703h-13.815V124.296
		z"/>
	<path id="XMLID_80_" fill="#A0833B" d="M522.445,105.269h-18.697v48.727h-11.416v-48.727h-18.78V95.258h48.894V105.269z"/>
	<path id="XMLID_78_" fill="#A0833B" d="M544.698,153.996V95.341h11.416v58.654H544.698z"/>
	<path id="XMLID_76_" fill="#A0833B" d="M594.665,116.354v37.642h-11.416V95.258h8.852l30.609,38.552V95.341h11.417v58.654h-9.266
		L594.665,116.354z"/>
	<path id="XMLID_74_" fill="#A0833B" d="M700.639,147.377c-4.523,4.688-9.735,7.032-15.636,7.032c-3.752,0-7.28-0.828-10.59-2.482
		c-3.309-1.654-6.191-3.874-8.645-6.659c-2.455-2.784-4.385-5.998-5.791-9.638c-1.406-3.641-2.109-7.418-2.109-11.334
		c0-4.025,0.703-7.818,2.109-11.375c1.406-3.558,3.363-6.673,5.873-9.349c2.51-2.675,5.461-4.799,8.853-6.37
		c3.392-1.572,7.073-2.357,11.044-2.357c5.349,0,9.928,1.158,13.733,3.475c3.805,2.316,6.672,5.433,8.604,9.348l-8.521,6.287
		c-1.435-2.922-3.405-5.156-5.915-6.7s-5.281-2.316-8.313-2.316c-2.428,0-4.62,0.524-6.577,1.571
		c-1.959,1.049-3.627,2.482-5.005,4.302c-1.38,1.82-2.455,3.917-3.227,6.288c-0.773,2.371-1.158,4.881-1.158,7.528
		c0,2.758,0.413,5.336,1.241,7.734c0.827,2.399,1.985,4.481,3.474,6.246c1.489,1.766,3.24,3.158,5.254,4.178
		c2.013,1.021,4.231,1.53,6.659,1.53c5.404,0,10.286-2.674,14.644-8.024v-4.136h-11.83v-8.356h21.261v30.196h-9.431V147.377z"/>
</g>
<g>
	<path id="XMLID_54_" fill="none" stroke="#A0833B" stroke-width="3.3437" stroke-miterlimit="10" d="M114.189,183.218
		l-14.834,24.931c-3.054,5.133-10.486,5.133-13.541,0l-14.834-24.931c0,0-25.125-40.33-25.125-50.67
		c0-23.155,20.957-41.926,46.809-41.926s46.809,18.771,46.809,41.926C139.474,143.098,114.189,183.218,114.189,183.218z"/>
	
		<circle id="XMLID_53_" fill="#FFFFFF" stroke="#A0833B" stroke-width="3.3437" stroke-miterlimit="10" cx="91.829" cy="135.011" r="14.042"/>
	<path id="XMLID_49_" fill="#A0833B" stroke="#A0833B" stroke-width="0.8359" stroke-miterlimit="10" d="M130.215,52.992
		c-0.022,0-0.065,0.006-0.117,0.011L130.095,53c-0.003,0-0.076,0.011-0.136,0.019c-0.008,0-0.014,0-0.022,0.003
		c-0.019,0.006-0.041,0.006-0.044,0.006c-0.003,0-0.003,0-0.003,0c-1.815,0.254-17.981,2.744-26.575,12.055
		c-9.125,9.872-7.21,21.199-7.123,21.676c0.019,0.112,0.096,0.188,0.15,0.283c-0.471,1.602-0.377,0.986-0.718,2.619
		c-0.33,1.621-2.029,1.812-2.549-0.818c-0.455-2.231-1.022-4.444-1.665-6.632c0.052-0.09,0.128-0.169,0.147-0.278
		c0.112-0.624,2.624-15.499-9.365-28.471c-11.281-12.21-32.49-15.52-35.022-15.875c-0.207-0.041-0.346-0.049-0.412-0.049
		c-0.51,0-0.932,0.398-0.965,0.908c-0.033,0.51,0.338,0.954,0.845,1.016l0.202,0.027c0.607,0.139,4.959,1.564,10.147,14.423
		c5.627,13.951,10.771,21.807,17.199,26.264c3.425,2.371,8.251,2.869,11.695,2.869c2.008,0,3.61-0.164,4.376-0.259
		c0.542,2.093,1.022,4.199,1.392,6.324c7.623,3.872,5.474,0.003,5.847-1.507c0.621,0.074,1.76,0.185,3.207,0.185
		c2.632,0,6.319-0.384,8.954-2.21c4.954-3.433,8.738-9.202,13.057-19.916c3.932-9.747,7.147-10.665,7.501-10.736
		c0.052-0.016,0.076-0.011,0.115-0.014c0.507-0.062,0.874-0.51,0.845-1.016C131.147,53.387,130.724,52.992,130.215,52.992z
		 M77.849,58.834c3.6,4.319,6.771,9.054,9.063,14.169c1.131,2.54,2.065,5.158,2.839,7.826c0,0.019-0.003,0.052-0.006,0.068
		c-0.796,0.09-2.193,0.213-3.864,0.213c-3.169,0-7.58-0.439-10.594-2.526c-6.095-4.229-11.036-11.826-16.512-25.401
		c-2.763-6.845-5.343-10.708-7.422-12.883c7.248,1.55,21.169,5.542,29.417,14.472c7.7,8.335,9.041,17.657,9.109,22.823
		c-0.632-1.689-1.308-3.362-2.093-4.995c-2.488-5.153-5.82-9.823-9.575-14.082c-3.815-4.144-8.229-8.071-13.632-9.894
		C69.926,50.6,74.185,54.624,77.849,58.834z M120.932,64.943c-4.114,10.196-7.812,15.894-12.371,19.052
		c-3.286,2.272-8.651,1.918-10.55,1.725c0-0.011-0.003-0.025-0.003-0.035c0.558-1.924,1.224-3.817,2.033-5.654
		c1.698-3.853,4.074-7.436,6.768-10.698c2.747-3.188,5.943-6.231,9.962-7.744c-4.082,1.357-7.43,4.305-10.327,7.425
		c-2.85,3.204-5.39,6.717-7.281,10.613c-0.431,0.886-0.823,1.79-1.193,2.7c0.229-3.992,1.529-10.272,6.763-15.937
		c5.921-6.414,15.752-9.425,21.349-10.687C124.585,57.445,122.806,60.292,120.932,64.943z"/>
</g>
</svg>
