<?xml version="1.0" encoding="UTF-8" standalone="no"?>
<svg width="12px" height="17px" viewBox="0 0 12 17" version="1.1" xmlns="http://www.w3.org/2000/svg" xmlns:xlink="http://www.w3.org/1999/xlink" xmlns:sketch="http://www.bohemiancoding.com/sketch/ns">
    <!-- Generator: Sketch 3.3 (11970) - http://www.bohemiancoding.com/sketch -->
    <title>place</title>
    <desc>Created with Sketch.</desc>
    <defs></defs>
    <g id="Page-1" stroke="none" stroke-width="1" fill="none" fill-rule="evenodd" sketch:type="MSPage">
        <g id="Desktop-Copy" sketch:type="MSArtboardGroup" transform="translate(-188.000000, -396.000000)" fill="#955251">
            <g id="Product-desktop" sketch:type="MSLayerGroup" transform="translate(187.000000, 205.000000)">
                <g id="Producto-Desktop" sketch:type="MSShapeGroup">
                    <g id="Localization" transform="translate(1.000000, 191.000000)">
                        <g id="place" transform="translate(0.000000, 0.500000)">
                            <path d="M5.6,0 C2.48,0 0,2.48 0,5.6 C0,9.76 5.6,16 5.6,16 C5.6,16 11.2,9.76 11.2,5.6 C11.2,2.48 8.72,0 5.6,0 L5.6,0 Z M5.6,7.6 C4.48,7.6 3.6,6.72 3.6,5.6 C3.6,4.48 4.48,3.6 5.6,3.6 C6.72,3.6 7.6,4.48 7.6,5.6 C7.6,6.72 6.72,7.6 5.6,7.6 L5.6,7.6 Z" id="Shape"></path>
                        </g>
                    </g>
                </g>
            </g>
        </g>
    </g>
</svg>