<?xml version="1.0" encoding="UTF-8" standalone="no"?>
<svg width="35px" height="35px" viewBox="0 0 35 35" version="1.1" xmlns="http://www.w3.org/2000/svg" xmlns:xlink="http://www.w3.org/1999/xlink" xmlns:sketch="http://www.bohemiancoding.com/sketch/ns">
    <!-- Generator: Sketch 3.3.3 (12081) - http://www.bohemiancoding.com/sketch -->
    <title>Desktop Copy 4</title>
    <desc>Created with Sketch.</desc>
    <defs></defs>
    <g id="Page-1" stroke="none" stroke-width="1" fill="none" fill-rule="evenodd" sketch:type="MSPage">
        <g id="Desktop-Copy-4" sketch:type="MSArtboardGroup">
            <g id="Oval-1-Copy-13-+-social-(8)" sketch:type="MSLayerGroup" transform="translate(2.000000, 2.000000)">
                <circle id="Oval-1-Copy-13" stroke="#AE5351" stroke-width="2" fill="#FFFFFF" sketch:type="MSShapeGroup" cx="16" cy="16" r="16"></circle>
                <g id="social-(8)" transform="translate(8.333333, 8.347826)" fill="#AE5351" sketch:type="MSShapeGroup">
                    <path d="M1.99845918,0 L13.5714898,0 C14.6705544,0 15.5697891,0.849086069 15.5697891,2.0851819 L15.5697891,14.1617214 C15.5697891,15.3978172 14.6705544,16.2469033 13.5714898,16.2469033 L1.99845918,16.2469033 C0.89907483,16.2469033 0,15.3978172 0,14.1617214 L0,2.0851819 C0,0.849086069 0.89907483,0 1.99845918,0 L1.99845918,0 L1.99845918,0 Z M11.3420272,1.80510027 C10.9564354,1.80510027 10.6413435,2.13405856 10.6413435,2.53658208 L10.6413435,4.2873008 C10.6413435,4.6896575 10.9564354,5.01878261 11.3420272,5.01878261 L13.1018095,5.01878261 C13.4874014,5.01878261 13.8028129,4.6896575 13.8028129,4.2873008 L13.8028129,2.53658208 C13.8028129,2.13405856 13.4874014,1.80510027 13.1018095,1.80510027 L11.3420272,1.80510027 L11.3420272,1.80510027 Z M13.8101667,6.87075776 L12.4398129,6.87075776 C12.5694626,7.3124827 12.6396429,7.78039752 12.6396429,8.26449335 C12.6396429,10.9668891 10.4725272,13.1574978 7.7997619,13.1574978 C5.12715646,13.1574978 2.96036054,10.9668891 2.96036054,8.26449335 C2.96036054,7.78006389 3.03038095,7.31231588 3.16019048,6.87075776 L1.73020748,6.87075776 L1.73020748,13.7336752 C1.73020748,14.0888234 2.00869048,14.3795812 2.34920068,14.3795812 L13.1914932,14.3795812 C13.5320034,14.3795812 13.8104864,14.0889902 13.8104864,13.7336752 L13.8104864,6.87075776 L13.8101667,6.87075776 L13.8101667,6.87075776 Z M7.79960204,4.92653416 C6.0727517,4.92653416 4.67266327,6.34195563 4.67266327,8.08817036 C4.67266327,9.83438509 6.0727517,11.2498066 7.79960204,11.2498066 C9.52661224,11.2498066 10.9268605,9.83438509 10.9268605,8.08817036 C10.9268605,6.34195563 9.52677211,4.92653416 7.79960204,4.92653416 L7.79960204,4.92653416 Z" id="Shape"></path>
                </g>
            </g>
        </g>
    </g>
</svg>