<?xml version="1.0" encoding="UTF-8" standalone="no"?>
<svg width="32px" height="32px" viewBox="0 0 32 32" version="1.1" xmlns="http://www.w3.org/2000/svg" xmlns:xlink="http://www.w3.org/1999/xlink" xmlns:sketch="http://www.bohemiancoding.com/sketch/ns">
    <!-- Generator: Sketch 3.3.3 (12081) - http://www.bohemiancoding.com/sketch -->
    <title>Shape</title>
    <desc>Created with Sketch.</desc>
    <defs></defs>
    <g id="Page-1" stroke="none" stroke-width="1" fill="none" fill-rule="evenodd" sketch:type="MSPage">
        <g id="Desktop" sketch:type="MSArtboardGroup" transform="translate(-1.000000, -2.000000)" fill="#FFFFFF">
            <path d="M32.1348468,24.703007 C31.5481761,24.2047652 30.4438252,23.8009533 28.5125959,24.707977 C27.2984646,25.2782837 25.5173022,25.9566877 23.0673856,26.7810853 C23.0588247,26.7841916 23.0532853,26.7916465 23.0452281,26.7947528 C22.3865454,26.5288582 21.5470776,26.3735459 20.5243067,26.3325435 C18.7189724,26.2604786 17.4439079,25.9858864 16.4050224,25.6150007 C16.6190439,25.2702075 17.7017409,23.4207489 18.241075,20.5021205 C18.7824235,17.5772797 18.8483925,12.9930825 16.0907885,7.75719498 C16.0832348,7.74290625 16.0716525,7.73545126 16.0630916,7.72240503 C16.1270463,7.16017458 16.1965403,5.75553034 15.5287932,4.46395343 C14.9526977,3.35005377 13.9828027,2.60952483 12.6463014,2.26348908 C12.6387477,2.26162533 12.631194,2.26473157 12.6236403,2.26286783 C12.6160866,2.26162533 12.6100437,2.25603409 12.6019864,2.25479159 C12.5843611,2.25292784 12.5687501,2.26038283 12.5516284,2.26162533 C12.5249386,2.26286783 12.4997596,2.26348908 12.4740771,2.27218656 C12.451416,2.27964155 12.4317763,2.29144529 12.4111296,2.30387027 C12.3879649,2.3169165 12.3663109,2.32996273 12.3456642,2.3486002 C12.3265281,2.36599518 12.3119243,2.38711765 12.2958097,2.40824012 C12.2791916,2.43060509 12.2625735,2.45172756 12.2494804,2.47844127 C12.2363873,2.50515498 12.22833,2.53373244 12.2197692,2.5635524 C12.2137262,2.58405362 12.2026474,2.60144859 12.1986188,2.62381356 C12.1971081,2.6331323 12.199626,2.64182979 12.1986188,2.65114852 C12.1976116,2.66046726 12.1930794,2.6685435 12.1920723,2.67786223 C12.0707095,4.35834108 12.3622823,5.71949789 13.0587334,6.72467895 C13.8987048,7.93735722 15.0670104,8.24114804 15.4809531,8.31321294 C20.4190585,17.7443957 15.8243947,25.0173591 15.7775617,25.0900452 C15.7297216,25.1633526 15.710082,25.2497062 15.7030319,25.3366811 C15.2714639,25.1484426 14.8741393,24.9459154 14.4858791,24.737797 L13.9737382,24.4588561 C11.9594183,23.3530327 10.0508502,22.3124404 5.73668046,23.50089 C5.7281196,23.5027537 5.72006232,23.4996475 5.71200504,23.5021325 L1.4411432,24.742767 L1.36610979,24.9595829 C1.31373747,25.1124102 0.101620448,28.7311863 2.39794517,32.1499201 L2.58678767,32.4307247 L2.85318148,32.2723062 C2.87433184,32.2598812 4.99138209,31.0180043 7.30936075,31.2528364 C8.36385723,31.3596913 10.4919862,31.9641667 12.5501176,32.5481408 C15.1732658,33.2930185 17.6634688,34 18.835803,34 C18.9440727,34 19.0412636,33.9937875 19.1263686,33.9813625 C20.2740274,33.8111403 20.7494069,33.5707169 21.8970657,32.9898489 C22.739555,32.5636721 24.0131088,31.9194367 26.2575648,30.9502881 C32.0628348,28.4435479 32.9999972,27.5943004 32.9999972,26.5307219 C33.0010043,25.9877502 32.7330998,25.2118101 32.1348468,24.703007 L32.1348468,24.703007 Z M12.9232704,3.30905133 C13.8256857,3.63272212 14.4863827,4.18501258 14.8882395,4.95660398 C15.3424686,5.82883773 15.3666405,6.78928886 15.3349149,7.33101809 C14.9093899,7.21298076 14.1807096,6.90856869 13.6338218,6.11958232 C13.1488742,5.41881332 12.9111845,4.47451467 12.9232704,3.30905133 L12.9232704,3.30905133 Z M26.0092998,30.0712206 C23.7457078,31.0484455 22.4615789,31.698272 21.6115359,32.1281764 C20.4679057,32.7065593 20.0831706,32.9016316 19.0367314,33.0569438 C18.1640273,33.1818149 15.272471,32.3654936 12.7203277,31.6411171 C10.5398263,31.0217318 8.48119137,30.4371363 7.37230825,30.3246902 C5.33180215,30.1190568 3.49021016,30.9310294 2.8048378,31.2820351 C1.29611217,28.8038724 1.79918857,26.2834648 1.99860625,25.5398296 L5.74423416,24.4520224 C5.74675206,24.4514011 5.74926996,24.4526436 5.75178786,24.4520224 C9.93401962,23.2617091 11.7474111,24.2581927 13.6675616,25.3124524 L14.1857454,25.5951208 C15.6315236,26.3704396 17.3099556,27.1376823 20.4991277,27.2650384 C22.0169177,27.3259208 23.8620348,27.675684 24.0352663,28.9983234 C24.067999,29.246823 24.0307341,29.4394103 23.9179322,29.60342 C23.7255646,29.8836034 23.1137149,30.3545102 21.180975,30.3632077 C18.2602111,30.3936489 13.8624471,29.4617752 13.8186356,29.4524565 C13.6136786,29.4108328 13.4177859,29.5798126 13.3830389,29.8339034 C13.3482919,30.0873731 13.4862728,30.3277965 13.6917335,30.3712839 C13.8730222,30.4098014 18.1317982,31.2957026 21.1200418,31.2957026 L21.1829893,31.2957026 C22.9122829,31.2882476 23.9949799,30.9322719 24.4935241,30.2072742 C24.7488391,29.8357672 24.8480444,29.3667241 24.7800611,28.8504661 C24.7045241,28.2733257 24.4607914,27.7943426 24.0528916,27.4141382 C26.1256268,26.7009442 27.6791711,26.0989538 28.7805005,25.580832 C30.4045459,24.8179381 31.2671784,25.0999852 31.705293,25.4727347 C32.1454219,25.8473479 32.2446272,26.3778946 32.2446272,26.5338282 C32.2456344,27.2824333 28.912942,28.8175399 26.0092998,30.0712206 L26.0092998,30.0712206 Z M18.5130082,13.9454574 C18.5125046,13.9690649 18.5200583,13.9895661 18.5220727,14.0125523 C18.5250941,14.044236 18.5266049,14.0752985 18.5346622,14.1051184 C18.5422159,14.1336959 18.5543018,14.1573033 18.5658841,14.1833958 C18.57797,14.2101095 18.5885452,14.236202 18.6041562,14.2591882 C18.6197672,14.2821744 18.6383996,14.2989481 18.6570321,14.3175856 C18.6761681,14.3368443 18.6937934,14.3554818 18.7154474,14.3697705 C18.7376049,14.3840593 18.7612731,14.390893 18.785445,14.4002117 C18.8035739,14.4070455 18.8191848,14.4200917 18.8388245,14.423198 C18.8458746,14.4244405 18.980834,14.4449417 19.2008985,14.4449417 C20.1818723,14.4449417 22.8563856,14.0336748 23.4788104,9.66008101 C23.4808247,9.64579228 23.4767961,9.63274605 23.4778033,9.61845732 C23.4788104,9.60416859 23.4843498,9.59236486 23.4843498,9.57807613 C23.4843498,9.5600599 23.4778033,9.54514993 23.4757889,9.52775495 C23.4727675,9.49607125 23.4687388,9.46625129 23.4606815,9.43581008 C23.4531278,9.40785387 23.4435598,9.38238266 23.4319775,9.35691144 C23.4198916,9.33019773 23.4073021,9.30659027 23.3916911,9.28360405 C23.3760801,9.26061783 23.359462,9.24135911 23.3408295,9.22272164 C23.3221971,9.20408416 23.303061,9.18793169 23.2814071,9.17364296 C23.2592496,9.15873298 23.2360849,9.14879299 23.2114095,9.1400955 C23.1978128,9.13512551 23.1862305,9.12394303 23.1716266,9.12083678 C23.1600443,9.11835179 23.1494691,9.12270053 23.1383904,9.12207928 C23.1273116,9.12083678 23.1177436,9.11400304 23.1066648,9.11400304 L23.1056577,9.11400304 C18.6983256,9.13077677 18.514519,13.8976212 18.5130082,13.9454574 L18.5130082,13.9454574 Z M22.6267531,10.0788029 C21.9861994,13.1191961 20.1199319,13.503128 19.314204,13.5186593 C19.4597386,12.5414344 20.0761205,10.3397275 22.6267531,10.0788029 L22.6267531,10.0788029 Z M17.211254,19.2906848 C17.2077289,19.266456 17.2102468,19.2428486 17.2037003,19.2192411 C17.1901036,19.1707837 15.826409,14.4176067 11.3656975,15.9899882 C11.3541152,15.994337 11.3455543,16.004277 11.3344756,16.0098682 C11.3228932,16.0154594 11.3113109,16.0148382 11.3002321,16.0216719 C11.2876426,16.0297482 11.2795853,16.0434156 11.268003,16.0527344 C11.2468526,16.0701294 11.227213,16.0875243 11.2095877,16.1092681 C11.1919624,16.1303905 11.176855,16.1527555 11.1632584,16.1769842 C11.1496617,16.2012129 11.1385829,16.2254416 11.1285113,16.2527766 C11.1184397,16.2807328 11.1113896,16.3080678 11.1063538,16.3372665 C11.101318,16.3658439 11.0982965,16.3938001 11.0972894,16.4236201 C11.0962822,16.4546826 11.0988001,16.4851238 11.1033323,16.5168075 C11.1058502,16.5335812 11.1028288,16.5497337 11.1063538,16.5665074 C11.1098789,16.5814174 11.1184397,16.5913574 11.1224684,16.6050248 C11.1270006,16.6186923 11.126497,16.6336023 11.1315328,16.6472698 C12.3129315,19.5485031 14.0145282,20.1852835 15.2815355,20.1852835 C16.2620057,20.1852835 16.9826286,19.8032153 16.9992468,19.7945178 C17.0173757,19.7845778 17.0294616,19.7665616 17.0460797,19.7535153 C17.0677337,19.7361204 17.0898912,19.7212104 17.1075165,19.6994667 C17.1251418,19.6783442 17.1372277,19.6541155 17.1508244,19.6292655 C17.1649246,19.6044156 17.1790248,19.5814293 17.1890964,19.5540944 C17.1986645,19.5267594 17.2026931,19.4988032 17.2077289,19.4696045 C17.2132683,19.4404058 17.2198148,19.4118283 17.2203184,19.3813871 C17.2213256,19.3509459 17.2157862,19.321126 17.211254,19.2906848 L17.211254,19.2906848 Z M12.048552,16.7510184 C14.7517693,16.0670231 15.9492825,18.1562839 16.3375427,19.0949913 C15.520736,19.3820084 13.4842585,19.7075429 12.048552,16.7510184 L12.048552,16.7510184 Z M10.5972345,10.8274081 C10.5906879,10.8559856 10.5866593,10.8839418 10.584645,10.9137617 C10.5826306,10.9435817 10.5821271,10.9715379 10.584645,11.0013578 C10.5871629,11.0324203 10.5932058,11.061619 10.6007595,11.0920602 C10.6047882,11.1088339 10.603781,11.1262289 10.609824,11.1430026 C10.6143562,11.1566701 10.6239242,11.1647464 10.6294636,11.1771713 C10.635003,11.1895963 10.6355065,11.2032638 10.6420531,11.2144463 C11.815898,13.370802 13.1856356,13.9367599 14.3000581,13.9367599 C15.5187216,13.9367599 16.4317121,13.2602196 16.4493374,13.2465521 C16.465452,13.2341272 16.4755236,13.2148684 16.4896238,13.1999585 C16.5092635,13.1794572 16.5294067,13.1608198 16.5450176,13.1359698 C16.560125,13.1123623 16.5696931,13.0868911 16.5802682,13.0607987 C16.5918506,13.0334637 16.6034329,13.0079925 16.610483,12.9787938 C16.6170296,12.9514588 16.6180367,12.9235026 16.6200511,12.8949251 C16.622569,12.8638627 16.6255904,12.8340427 16.6230725,12.802359 C16.6205546,12.7737816 16.6124974,12.7470679 16.6059508,12.7197329 C16.5999079,12.6955042 16.5999079,12.6706542 16.5908434,12.6470467 C16.5737217,12.6035593 14.8383851,8.3368204 10.8042058,10.527966 C10.7936307,10.5335573 10.7865805,10.545361 10.7765089,10.5521947 C10.7664373,10.5590285 10.7553586,10.5596497 10.7457906,10.567726 C10.7337046,10.577666 10.7271581,10.5925759 10.7165829,10.6037584 C10.6964397,10.6248809 10.6788144,10.6460034 10.6626999,10.6708533 C10.6475925,10.6944608 10.6360101,10.7180683 10.6249314,10.7441607 C10.6128454,10.7721169 10.603781,10.7982094 10.5972345,10.8274081 L10.5972345,10.8274081 Z M15.7151178,12.6594717 C14.9723374,13.0483737 13.1423277,13.6286203 11.5580651,11.1709589 C13.9621559,10.1409278 15.2563565,11.8400441 15.7151178,12.6594717 L15.7151178,12.6594717 Z M18.8488961,19.6298868 C18.8433567,19.652873 18.8463782,19.6758592 18.8438603,19.6988454 C18.8403352,19.7299079 18.8352994,19.7597278 18.8368101,19.790169 C18.8383209,19.8206103 18.8448674,19.8479452 18.8509104,19.8765227 C18.8569533,19.9057214 18.8619891,19.9342988 18.8720607,19.9610126 C18.8821323,19.987105 18.8962326,20.0088487 18.9098292,20.0318349 C18.9244331,20.0573062 18.9385333,20.0821561 18.9571658,20.1032786 C18.9742875,20.1225373 18.9944307,20.1355836 19.0140703,20.1504935 C19.0316956,20.164161 19.0452923,20.1827985 19.0649319,20.1927385 C19.0800393,20.2008147 19.7221038,20.518273 20.5983329,20.518273 C21.8089392,20.518273 23.4662209,19.9119339 24.5358248,17.0473542 C24.5408606,17.034308 24.5398535,17.0200193 24.5438821,17.0063518 C24.5479107,16.9933055 24.5554644,16.9833656 24.5584859,16.9696981 C24.562011,16.9523031 24.5589895,16.9355294 24.5610038,16.9187556 C24.5645289,16.8870719 24.5670468,16.8566307 24.5650325,16.824947 C24.5635217,16.7951271 24.5594931,16.7677921 24.5539537,16.7392147 C24.5479107,16.7100159 24.5408606,16.682681 24.5302854,16.6559673 C24.5197103,16.6286323 24.5076243,16.6050248 24.4930205,16.5807961 C24.4789203,16.5571887 24.4638129,16.5354449 24.4461876,16.5149437 C24.4275551,16.4938213 24.4074119,16.4764263 24.3852544,16.4602738 C24.3731685,16.4509551 24.3646076,16.4372876 24.351011,16.4298326 C24.3404358,16.4236201 24.3288534,16.4248626 24.3177747,16.4198926 C24.3071995,16.4149226 24.2991422,16.4056039 24.2880635,16.4018764 C20.0212303,15.0314008 18.8604784,19.5832931 18.8488961,19.6298868 L18.8488961,19.6298868 Z M19.7140465,19.4702258 C20.0610131,18.5718995 21.1195382,16.6398148 23.6263594,17.1852715 C22.3789917,19.9218739 20.4971133,19.7087854 19.7140465,19.4702258 L19.7140465,19.4702258 Z M17.3376525,8.88662587 C17.3703852,8.94875078 17.4116788,9.0009357 17.4615332,9.0363469 C17.4675762,9.04069565 17.4736191,9.04255939 17.4796621,9.04628689 C17.5330416,9.07983434 17.5909533,9.10157806 17.6513829,9.10157806 C17.7037552,9.10157806 17.7571347,9.08853183 17.8084998,9.05933312 C17.8422397,9.0400744 21.1875215,7.08748844 19.5795906,2.28212655 C19.5750584,2.26908032 19.5664975,2.26038283 19.5609582,2.24795785 C19.5559224,2.23553287 19.5549152,2.22124414 19.5488722,2.20881915 C19.540815,2.19390918 19.528729,2.18521169 19.5196646,2.17154421 C19.50355,2.14669424 19.4869319,2.12432927 19.4672923,2.1044493 C19.4486598,2.08519058 19.4290202,2.0702806 19.4078698,2.05599187 C19.3867195,2.04170314 19.3660727,2.03052066 19.3434116,2.02120192 C19.3192398,2.01188319 19.2960751,2.00629194 19.2708961,2.0031857 C19.248235,2.00007945 19.2265811,1.99883695 19.2034164,2.00132195 C19.1772302,2.00380695 19.1520512,2.01064069 19.1263686,2.01933817 C19.1132756,2.02430817 19.0996789,2.02244442 19.0865858,2.02865691 C19.0760106,2.03424815 19.0689605,2.04480939 19.0593925,2.05164313 C19.0488173,2.05847687 19.0377386,2.05909812 19.027667,2.06655311 C15.4759173,4.86403786 17.3069342,8.8313347 17.3260702,8.87109464 C17.3285881,8.87854963 17.3346311,8.88041338 17.3376525,8.88662587 L17.3376525,8.88662587 Z M19.0417672,3.19909024 C19.7568508,5.98787751 18.4601323,7.45216167 17.8180678,7.97898091 C17.5335451,7.09494343 17.1472993,4.98393894 19.0417672,3.19909024 L19.0417672,3.19909024 Z" id="Shape" sketch:type="MSShapeGroup"></path>
        </g>
    </g>
</svg>