<?xml version="1.0" encoding="UTF-8" standalone="no"?>
<svg width="35px" height="35px" viewBox="0 0 35 35" version="1.1" xmlns="http://www.w3.org/2000/svg" xmlns:xlink="http://www.w3.org/1999/xlink" xmlns:sketch="http://www.bohemiancoding.com/sketch/ns">
    <!-- Generator: Sketch 3.3.3 (12081) - http://www.bohemiancoding.com/sketch -->
    <title>Desktop Copy 12</title>
    <desc>Created with Sketch.</desc>
    <defs></defs>
    <g id="Page-1" stroke="none" stroke-width="1" fill="none" fill-rule="evenodd" sketch:type="MSPage">
        <g id="Desktop-Copy-12" sketch:type="MSArtboardGroup">
            <g id="Oval-1-Copy-8-+-tool" sketch:type="MSLayerGroup" transform="translate(2.000000, 1.500000)">
                <circle id="Oval-1-Copy-8" stroke="#9F504E" stroke-width="2" sketch:type="MSShapeGroup" cx="16" cy="16" r="16"></circle>
                <g id="tool" transform="translate(12.333333, 7.000000)" fill="#AE5351" sketch:type="MSShapeGroup">
                    <g id="Group">
                        <path d="M7.62010398,13.9670393 C7.61088991,13.8515193 7.45636086,13.760769 7.26884404,13.760769 L4.91151988,13.760769 L4.91151988,3.16610865 C6.64179511,2.70567682 6.75081651,0.65212659 6.75081651,0.650478162 C6.75081651,0.291815045 6.27766361,0 5.69612232,0 L1.96850459,0 C1.38689297,0 0.913740061,0.291815045 0.913740061,0.650478162 C0.913740061,0.655033028 1.02318349,2.70585034 2.7530367,3.16606527 L2.7530367,13.760769 L0.395782875,13.760769 C0.208266055,13.760769 0.0537370031,13.8515193 0.0445229358,13.9670393 C0.0339021407,14.1004752 -0.192159021,17.2502297 1.82966055,18.5598186 C2.35387768,18.8993947 3.10865749,19.1291768 3.83234862,19.1291768 C4.55603976,19.1291768 5.31074924,18.8993947 5.83496636,18.559862 C7.8567156,17.2502731 7.63072477,14.1004752 7.62010398,13.9670393 L7.62010398,13.9670393 Z M3.45429052,3.75602879 L4.21765138,3.75602879 L4.21153211,10.4146781 L3.45576758,10.4146781 L3.45429052,3.75602879 L3.45429052,3.75602879 Z M1.61710398,0.650478162 C1.61710398,0.531010549 1.77472783,0.433796707 1.96850459,0.433796707 L5.69612232,0.433796707 C5.88982875,0.433796707 6.0474526,0.531010549 6.0474526,0.650478162 C6.0474526,0.769945775 5.88982875,0.867202997 5.69612232,0.867202997 L1.96850459,0.867202997 C1.77479817,0.867202997 1.61710398,0.769989155 1.61710398,0.650478162 L1.61710398,0.650478162 Z M1.79906422,1.29180321 C1.85434862,1.29735581 1.91068807,1.3009997 1.96850459,1.3009997 L5.69612232,1.3009997 C5.7538685,1.3009997 5.81020795,1.29735581 5.86549235,1.29180321 C5.52478287,1.78897762 4.7418685,2.13770679 3.83227829,2.13770679 C2.92268807,2.13766341 2.1397737,1.78893424 1.79906422,1.29180321 L1.79906422,1.29180321 Z M2.12240061,2.22216701 C2.60329052,2.44162477 3.19397554,2.5715035 3.83227829,2.5715035 C4.47065138,2.5715035 5.06133639,2.44158139 5.54229664,2.22212363 C5.31271865,2.48235828 4.97165749,2.70906044 4.4627737,2.80774919 C4.31176147,2.83703046 4.21715902,2.92348615 4.2182844,3.01627526 L4.21800306,3.32223208 L3.45422018,3.32223208 L3.45414985,3.01627526 C3.45422018,2.92374643 3.35912538,2.83789806 3.20832416,2.8090072 C2.69585321,2.71092576 2.35289297,2.48348615 2.12240061,2.22216701 L2.12240061,2.22216701 Z M5.3251682,18.260976 C4.90237615,18.5347451 4.4129052,18.6771606 3.83234862,18.6951632 C3.25186239,18.6771606 2.7623211,18.5347451 2.33945872,18.260976 C0.800217125,17.2643715 0.724816514,14.9059056 0.738813456,14.1945657 L3.10478899,14.1945657 C3.29898777,14.1945657 3.45647095,14.0974386 3.45647095,13.9776674 C3.45647095,13.9775372 3.45640061,13.9774071 3.45640061,13.9772336 L3.45576758,10.8484748 L4.21103976,10.8484748 L4.20815596,13.9776674 L4.2082263,13.9776674 C4.2082263,14.0974386 4.36570948,14.1945657 4.55990826,14.1945657 L6.92581346,14.1945657 C6.9398104,14.9059056 6.86440979,17.2644149 5.3251682,18.260976 L5.3251682,18.260976 Z" id="Shape"></path>
                    </g>
                </g>
            </g>
        </g>
    </g>
</svg>