<?xml version="1.0" encoding="UTF-8" standalone="no"?>
<svg width="35px" height="35px" viewBox="0 0 35 35" version="1.1" xmlns="http://www.w3.org/2000/svg" xmlns:xlink="http://www.w3.org/1999/xlink" xmlns:sketch="http://www.bohemiancoding.com/sketch/ns">
    <!-- Generator: Sketch 3.3.3 (12081) - http://www.bohemiancoding.com/sketch -->
    <title>Desktop Copy 8</title>
    <desc>Created with Sketch.</desc>
    <defs></defs>
    <g id="Page-1" stroke="none" stroke-width="1" fill="none" fill-rule="evenodd" sketch:type="MSPage">
        <g id="Desktop-Copy-8" sketch:type="MSArtboardGroup">
            <g id="Oval-1-Copy-4-+-dog" sketch:type="MSLayerGroup" transform="translate(2.000000, 1.500000)">
                <circle id="Oval-1-Copy-4" stroke="#AE5351" stroke-width="2" fill="#FFFFFF" sketch:type="MSShapeGroup" cx="16" cy="16" r="16"></circle>
                <g id="dog" transform="translate(9.333333, 8.695652)" fill="#AE5351" sketch:type="MSShapeGroup">
                    <path d="M10.8505232,10.0379708 C10.7089387,9.80562445 9.67121076,8.12197 8.78427504,7.23138181 C8.04430493,6.49137346 6.93674141,6.46995102 6.81118087,6.46995102 C6.79976084,6.47001329 6.78828102,6.47044921 6.77704036,6.47138333 L6.50852018,6.47138333 C6.38989537,6.47138333 5.32699552,6.49243212 4.54959641,7.22129334 C3.59043348,8.12159635 2.52914798,9.93745965 2.45488789,10.0654338 C1.89267564,10.9912694 1.54810164,11.5934019 1.54810164,12.2628532 C1.54810164,13.4691733 2.39671151,14.2486638 3.71001495,14.2486638 L9.61201794,14.2486638 C10.9249626,14.2486638 11.7733333,13.468426 11.7733333,12.2608605 C11.7733333,11.5854931 11.4279223,10.9842324 10.8642152,10.0592687 C10.8597907,10.0520448 10.8552466,10.0448832 10.8505232,10.0379708 L10.8505232,10.0379708 Z M9.61201794,13.3145457 L3.71001495,13.3145457 C3.23754858,13.3145457 2.44496263,13.1779153 2.44496263,12.2628532 C2.44496263,11.8718314 2.69165919,11.422832 3.21536622,10.560641 C3.21710015,10.5577763 3.21883408,10.5548494 3.22056801,10.5519225 C3.23103139,10.5338629 4.27473842,8.73686881 5.14983558,7.91546763 C5.68346786,7.41515398 6.50092676,7.40562597 6.50887892,7.4055637 L6.81261584,7.4055637 C6.82116592,7.4055637 6.82959641,7.4053146 6.8380867,7.4048164 C6.98403587,7.41054566 7.7193423,7.46129941 8.162571,7.90450731 C9.01656203,8.76215227 10.0952466,10.5416472 10.1060688,10.55952 C10.1109118,10.5675534 10.1159342,10.5753378 10.1211958,10.5829353 C10.6782063,11.4982464 10.8765321,11.8918215 10.8765321,12.2607359 C10.8764723,13.1317076 10.1888191,13.3145457 9.61201794,13.3145457 L9.61201794,13.3145457 Z" id="Shape"></path>
                    <path d="M4.4961435,5.33885855 C5.50834081,5.33885855 6.30116592,4.1661667 6.30116592,2.66914904 C6.30122571,1.17244276 5.50834081,0 4.4961435,0 C3.48406577,0 2.69124066,1.17244276 2.69124066,2.66914904 C2.69124066,4.16622897 3.48406577,5.33885855 4.4961435,5.33885855 L4.4961435,5.33885855 Z M4.4961435,0.934118094 C4.92568012,0.934118094 5.40430493,1.64666338 5.40430493,2.66914904 C5.40430493,3.69194608 4.92562033,4.40474046 4.4961435,4.40474046 C4.06666667,4.40474046 3.58804185,3.69194608 3.58804185,2.66914904 C3.58810164,1.64666338 4.06666667,0.934118094 4.4961435,0.934118094 L4.4961435,0.934118094 Z" id="Shape"></path>
                    <path d="M2.13237668,8.55004519 C2.30881913,8.55004519 2.47736921,8.51224454 2.63539611,8.43670552 C3.42236173,8.05558534 3.64149477,6.85947826 3.13405082,5.71337763 C2.74032885,4.8258409 2.01195815,4.22956218 1.32143498,4.22956218 C1.14481315,4.22956218 0.976023916,4.26748737 0.819133034,4.34271502 C0.0310911809,4.72252743 -0.188759342,5.91888361 0.318804185,7.06697703 C0.712526158,7.95401557 1.4413154,8.54998291 2.1322571,8.55004519 L2.13237668,8.55004519 L2.13237668,8.55004519 Z M1.13315396,6.67564382 C0.829656203,5.9891293 0.915814649,5.32534498 1.19491779,5.19089425 C1.23312407,5.17258553 1.27443946,5.16368027 1.32137519,5.16368027 C1.60298954,5.16368027 2.04855007,5.49361078 2.31970105,6.10483539 C2.6231988,6.79035352 2.53704036,7.45420011 2.25925262,7.58871312 C2.22086697,7.60702183 2.1793722,7.61598937 2.13231689,7.61598937 C1.8503438,7.61592709 1.40424514,7.28612113 1.13315396,6.67564382 L1.13315396,6.67564382 Z" id="Shape"></path>
                    <path d="M8.82457399,5.33885855 C9.83641256,5.33885855 10.6290583,4.1661667 10.6290583,2.66914904 C10.6290583,1.17244276 9.83641256,0 8.82457399,0 C7.81177877,0 7.01847534,1.17244276 7.01847534,2.66914904 C7.01847534,4.16622897 7.81177877,5.33885855 8.82457399,5.33885855 L8.82457399,5.33885855 Z M8.82457399,0.934118094 C9.25387145,0.934118094 9.73219731,1.64666338 9.73219731,2.66914904 C9.73219731,3.69194608 9.25387145,4.40474046 8.82457399,4.40474046 C8.39455904,4.40474046 7.91533632,3.69194608 7.91533632,2.66914904 C7.91533632,1.64666338 8.39455904,0.934118094 8.82457399,0.934118094 L8.82457399,0.934118094 Z" id="Shape"></path>
                    <path d="M12.5024813,4.34283957 C12.346009,4.26736283 12.1768012,4.22906398 11.9995815,4.22906398 C11.3100747,4.22906398 10.5819432,4.82552952 10.1879821,5.71287944 C9.67826607,6.85848187 9.89721973,8.05502487 10.6883109,8.43776419 C10.8443049,8.51230682 11.0129148,8.55010746 11.1893572,8.55010746 C11.8804783,8.55010746 12.6090882,7.95401557 13.0024514,7.06660338 C13.5104335,5.91931954 13.2907025,4.72283881 12.5024813,4.34283957 L12.5024813,4.34283957 Z M12.1881016,6.6752079 C11.9172496,7.28624568 11.4713901,7.61592709 11.1893572,7.61592709 C11.1422422,7.61592709 11.1007474,7.60702183 11.0642152,7.58958496 C10.783438,7.45376419 10.6970404,6.79029125 11.0018535,6.10527131 C11.2735426,5.49329941 11.7186248,5.1631198 11.9995815,5.1631198 C12.046278,5.1631198 12.0874738,5.17202506 12.1255605,5.19039605 C12.4056203,5.3255318 12.4918386,5.98925384 12.1881016,6.6752079 L12.1881016,6.6752079 Z" id="Shape"></path>
                </g>
            </g>
        </g>
    </g>
</svg>