<?xml version="1.0" encoding="UTF-8" standalone="no"?>
<svg width="35px" height="35px" viewBox="0 0 35 35" version="1.1" xmlns="http://www.w3.org/2000/svg" xmlns:xlink="http://www.w3.org/1999/xlink" xmlns:sketch="http://www.bohemiancoding.com/sketch/ns">
    <!-- Generator: Sketch 3.3.3 (12081) - http://www.bohemiancoding.com/sketch -->
    <title>Desktop</title>
    <desc>Created with Sketch.</desc>
    <defs></defs>
    <g id="Page-1" stroke="none" stroke-width="1" fill="none" fill-rule="evenodd" sketch:type="MSPage">
        <g id="Desktop" sketch:type="MSArtboardGroup">
            <g id="Oval-1-Copy-14-+-social-(6)" sketch:type="MSLayerGroup" transform="translate(2.000000, 1.000000)">
                <circle id="Oval-1-Copy-14" stroke="#AE5351" stroke-width="2" fill="#FFFFFF" sketch:type="MSShapeGroup" cx="16" cy="16" r="16"></circle>
                <g id="social-(6)" transform="translate(8.666667, 8.000000)" fill="#AE5351" sketch:type="MSShapeGroup">
                    <g id="Group">
                        <path d="M6.23530255,0.103570919 C3.17946614,0.458699216 0.132819701,3.01970777 0.00635356201,6.68181397 C-0.0706833773,8.91744833 0.540960422,10.5941839 2.59312313,11.0661333 C3.48182762,9.43589095 2.30687247,9.0795474 2.12292172,7.89855666 C1.36987335,3.07212046 7.49417766,-0.224155381 10.701781,3.14840699 C12.922956,5.48416251 11.4594055,12.6654063 7.88163149,11.9182217 C4.45445207,11.2055738 9.56014424,5.48894512 6.82508707,4.36754098 C4.6016051,3.45468995 3.4209015,7.15615467 4.47513896,8.99616536 C3.85661214,12.1601746 2.52531398,15.1394262 3.06449692,19.1066393 C4.8119912,17.7909907 5.40177573,15.2752994 5.88464644,12.6499608 C6.76298857,13.2041162 7.23322779,13.7773236 8.35300528,13.8667035 C12.4826315,14.199134 14.7923026,9.59316821 14.2255119,5.34115467 C13.7231266,1.57296864 10.1004996,-0.345680684 6.23530255,0.103570919 Z" id="Shape"></path>
                    </g>
                </g>
            </g>
        </g>
    </g>
</svg>