<?xml version="1.0" encoding="UTF-8" standalone="no"?>
<svg width="35px" height="35px" viewBox="0 0 35 35" version="1.1" xmlns="http://www.w3.org/2000/svg" xmlns:xlink="http://www.w3.org/1999/xlink" xmlns:sketch="http://www.bohemiancoding.com/sketch/ns">
    <!-- Generator: Sketch 3.3.3 (12081) - http://www.bohemiancoding.com/sketch -->
    <title>Desktop Copy 10</title>
    <desc>Created with Sketch.</desc>
    <defs></defs>
    <g id="Page-1" stroke="none" stroke-width="1" fill="none" fill-rule="evenodd" sketch:type="MSPage">
        <g id="Desktop-Copy-10" sketch:type="MSArtboardGroup">
            <g id="Oval-1-Copy-6-+-Group" sketch:type="MSLayerGroup" transform="translate(1.000000, 1.000000)">
                <circle id="Oval-1-Copy-6" stroke="#AE5351" stroke-width="2" sketch:type="MSShapeGroup" cx="16" cy="16" r="16"></circle>
                <g id="Group" transform="translate(10.333333, 6.000000)" fill="#AE5351" sketch:type="MSShapeGroup">
                    <path d="M4.19377188,13.2396607 L8.00274318,13.2396607 L8.00274318,11.9830965 L4.19377188,11.9830965 L4.19377188,13.2396607 L4.19377188,13.2396607 Z M4.65571734,12.4645387 L7.54079772,12.4645387 L7.54079772,12.7582185 L4.65571734,12.7582185 L4.65571734,12.4645387 L4.65571734,12.4645387 Z" id="Shape"></path>
                    <path d="M4.19377188,10.0200159 L4.19377188,11.6321251 L8.00274318,11.6321251 L8.00274318,10.5337147 C8.55777066,10.2850498 8.93240842,9.70539343 8.93240842,9.06579745 C8.93240842,8.22303287 8.30277676,7.53071898 7.50823057,7.47246448 C7.2707906,6.89160445 6.71368437,6.49946978 6.09837302,6.49946978 C5.69763533,6.49946978 5.31745421,6.66147508 5.03266484,6.9491368 C4.89546703,6.90797349 4.75411172,6.88703075 4.61067766,6.88703075 C3.76554843,6.88703075 3.07817359,7.60365748 3.07817359,8.48445599 C3.07817359,9.20180488 3.54566239,9.82840191 4.19377188,10.0200159 L4.19377188,10.0200159 Z M4.61067766,7.36847296 C4.74856838,7.36847296 4.88368742,7.39615589 5.01257021,7.45055885 L5.16870777,7.51651644 L5.27657204,7.38171262 C5.48075193,7.12702969 5.78032357,6.98091198 6.09837302,6.98091198 C6.56932641,6.98091198 6.99131359,7.30949629 7.12458486,7.78010604 L7.17586081,7.96064687 L7.40013533,7.94981442 C7.9907326,7.94981442 8.47092491,8.45051432 8.47092491,9.06579745 C8.47092491,9.55542418 8.15657102,9.99498091 7.7061742,10.1345992 L7.54102869,10.1858727 L7.54102869,11.1506829 L4.65571734,11.1506829 L4.65571734,9.61680806 L4.45754274,9.58719936 C3.9343895,9.50896501 3.53988807,9.03498515 3.53988807,8.48421527 C3.54011905,7.86893213 4.02031136,7.36847296 4.61067766,7.36847296 L4.61067766,7.36847296 Z" id="Shape"></path>
                    <path d="M9.7008547,2.28685048 L9.7008547,0.120360551 L9.23890924,0.120360551 C9.23890924,1.14511029 5.53941901,2.28685048 0.230972731,2.28685048 L0,2.28685048 L0,19.6187699 L12.010582,19.6187699 L12.010582,2.28685048 L9.7008547,2.28685048 L9.7008547,2.28685048 Z M9.23890924,0.985752916 L9.23890924,2.28685048 L5.78263329,2.28685048 C7.33823464,1.9871527 8.59795991,1.55072534 9.23890924,0.985752916 L9.23890924,0.985752916 Z M11.5486365,19.1373277 L0.461945462,19.1373277 L0.461945462,2.76829268 L11.5486365,2.76829268 L11.5486365,19.1373277 L11.5486365,19.1373277 Z" id="Shape" stroke="#AE5351"></path>
                </g>
            </g>
        </g>
    </g>
</svg>