<?xml version="1.0" encoding="UTF-8" standalone="no"?>
<svg width="35px" height="35px" viewBox="0 0 35 35" version="1.1" xmlns="http://www.w3.org/2000/svg" xmlns:xlink="http://www.w3.org/1999/xlink" xmlns:sketch="http://www.bohemiancoding.com/sketch/ns">
    <!-- Generator: Sketch 3.3.3 (12081) - http://www.bohemiancoding.com/sketch -->
    <title>Desktop Copy 11</title>
    <desc>Created with Sketch.</desc>
    <defs></defs>
    <g id="Page-1" stroke="none" stroke-width="1" fill="none" fill-rule="evenodd" sketch:type="MSPage">
        <g id="Desktop-Copy-11" sketch:type="MSArtboardGroup">
            <g id="Oval-1-Copy-7-+-Shape" sketch:type="MSLayerGroup" transform="translate(1.000000, 1.500000)">
                <circle id="Oval-1-Copy-7" stroke="#AE5351" stroke-width="2" sketch:type="MSShapeGroup" cx="16" cy="16" r="16"></circle>
                <path d="M18.0754059,17.8600353 C17.5890553,18.7414763 16.8979254,19.435945 16.2579903,19.916731 C16.2579903,19.916731 16.1811981,19.9701516 16.1556007,19.996862 C15.3876787,20.557779 14.6709514,20.8248823 14.3637825,20.6913306 C14.3637825,20.6913306 14.4405748,20.5844893 14.5941592,20.397517 C14.7221462,20.2105446 14.9269254,19.9434413 15.157302,19.6496276 C15.3876787,19.3291036 15.6180553,18.955159 15.8740293,18.554504 C16.1300033,18.153849 16.3859774,17.6997733 16.6419514,17.272408 C16.8979254,16.8183323 17.128302,16.390967 17.3330813,15.9636016 C17.5378605,15.5362363 17.7426397,15.1355813 17.8962241,14.788347 C18.0498085,14.4411126 18.1777956,14.147299 18.2545878,13.9336163 C18.33138,13.7199336 18.3825748,13.6130923 18.3825748,13.6130923 C18.587354,13.7199336 18.7409384,14.0137473 18.8177306,14.4411126 C18.8177306,14.3609816 18.843328,16.471098 18.0754059,17.8600353 L18.0754059,17.8600353 Z M14.8245358,19.5427863 C14.9781202,19.195552 15.157302,18.794897 15.3876787,18.3675316 C15.5924579,17.9401663 15.8484319,17.4860906 16.0788085,17.0587253 C16.3347826,16.6046496 16.5907566,16.1772843 16.8467306,15.7766293 C17.1027046,15.3759743 17.3586787,15.0020296 17.5634579,14.6815056 C17.7938345,14.3609816 17.9730163,14.0938783 18.1266008,13.9336163 C18.2545878,13.746644 18.3569774,13.666513 18.3569774,13.666513 C17.7170423,13.3994096 15.7972371,14.5212436 14.6965488,16.471098 C13.5958605,18.4209523 13.8006397,20.5310686 14.3637825,20.7714616 C14.3637825,20.7714616 14.4149773,20.63791 14.4917696,20.4509376 C14.5685618,20.1838343 14.6709514,19.8900206 14.8245358,19.5427863 L14.8245358,19.5427863 Z M20.9935099,22.6946056 C21.1726917,22.320661 21.2494839,22.0268473 21.1470943,21.839875 C21.1470943,21.839875 21.0447047,21.8932956 20.8911203,22.0268473 C20.7375358,22.1336886 20.5071592,22.2939506 20.1999904,22.4542126 C19.918419,22.641185 19.5856527,22.8281573 19.2272891,23.0151296 C18.8689254,23.202102 18.459367,23.4157846 18.0754059,23.602757 C17.6658475,23.7897293 17.2818865,23.9767016 16.8979254,24.1369636 C16.5139644,24.2972256 16.1556007,24.4574876 15.8484319,24.564329 C15.5412631,24.6711703 15.285289,24.7780116 15.0805098,24.8314323 C14.901328,24.884853 14.773341,24.9115633 14.773341,24.9115633 C14.901328,25.1786666 15.4900683,25.3923493 16.2835878,25.3923493 L16.3859774,25.3923493 L16.4115748,25.3923493 C17.0771072,25.3923493 17.8962241,25.2320873 18.6897436,24.8581426 C19.918419,24.243805 21.0191073,22.641185 20.9935099,22.6946056 L20.9935099,22.6946056 Z M15.7204449,24.2972256 C16.0020163,24.1102533 16.3347826,23.923281 16.6931462,23.7095983 C17.0515098,23.522626 17.4610683,23.3089433 17.8450293,23.121971 C18.2545878,22.9349986 18.6385488,22.7480263 19.0225099,22.5877643 C19.4064709,22.4275023 19.7648345,22.2939506 20.0720034,22.160399 C20.3791722,22.0535576 20.6607436,21.9734266 20.8399255,21.8932956 C21.0191073,21.839875 21.1470943,21.8131646 21.1470943,21.8131646 C20.8911203,21.2522476 19.0481073,21.0118546 17.3074839,21.8665853 C15.5412631,22.721316 14.5685618,24.4307773 14.7989384,24.9115633 C14.7989384,24.9115633 14.901328,24.8314323 15.0549124,24.724591 C15.2084968,24.6177496 15.4388735,24.4574876 15.7204449,24.2972256 L15.7204449,24.2972256 Z M13.0839124,24.0568326 C13.4678734,24.0301223 13.7750423,23.923281 13.8774319,23.7363086 C13.8774319,23.7363086 13.7750423,23.682888 13.5958605,23.602757 C13.4166786,23.522626 13.1607046,23.3890743 12.8791332,23.2288123 C12.5975617,23.0685503 12.2391981,22.8548676 11.9064319,22.641185 C11.5480682,22.4275023 11.1897046,22.160399 10.8057436,21.920006 C10.4473799,21.6529026 10.0890163,21.4125096 9.75625004,21.1454063 C9.4234838,20.878303 9.11631497,20.63791 8.86034094,20.4242273 C8.60436691,20.2105446 8.39958769,20.0235723 8.24600327,19.8900206 C8.09241886,19.756469 8.01562665,19.676338 8.01562665,19.676338 C7.86204223,19.916731 8.01562665,20.557779 8.42518509,21.278958 C8.45078249,21.3056683 8.45078249,21.3323786 8.4763799,21.359089 C8.4763799,21.359089 8.4763799,21.359089 8.4763799,21.3857993 C8.83474354,22.000137 9.372289,22.641185 10.0890163,23.1486813 C11.2408994,23.923281 13.1351072,24.0568326 13.0839124,24.0568326 L13.0839124,24.0568326 Z M9.01392536,20.157124 C9.29549679,20.317386 9.65386043,20.5310686 10.0122241,20.7447513 C10.3705877,20.958434 10.7289513,21.2255373 11.1129124,21.4659303 C11.471276,21.7330336 11.8296397,21.9734266 12.1624059,22.24053 C12.4951721,22.5076333 12.802341,22.7480263 13.058315,22.961709 C13.314289,23.1753916 13.5190682,23.362364 13.6726527,23.522626 C13.8262371,23.6561776 13.9030293,23.7363086 13.9030293,23.7363086 C14.2357955,23.202102 13.4678734,21.43922 11.8552371,20.317386 C10.2426007,19.195552 8.32279548,19.195552 8.04122405,19.6496276 C8.04122405,19.6496276 8.14361366,19.7030483 8.32279548,19.7831793 C8.4763799,19.8633103 8.73235393,19.996862 9.01392536,20.157124 L9.01392536,20.157124 Z M24.5003541,21.759744 C24.8843151,21.839875 25.1914839,21.8131646 25.3450683,21.6529026 C25.3450683,21.6529026 25.2682761,21.5727716 25.1146917,21.43922 C24.9611073,21.3056683 24.7563281,21.118696 24.5003541,20.878303 C24.24438,20.63791 23.988406,20.3708066 23.6812372,20.0502826 C23.3996657,19.756469 23.0924969,19.4092346 22.7853281,19.0620003 C22.4781592,18.714766 22.1965878,18.3675316 21.9406138,18.0470076 C21.6846397,17.6997733 21.4286657,17.4059596 21.2494839,17.112146 C21.0447047,16.8450426 20.8911203,16.6046496 20.7887306,16.4176773 C20.686341,16.2574153 20.6351462,16.150574 20.6351462,16.150574 C20.430367,16.3375463 20.4047696,17.0053046 20.6607436,17.8066146 C20.6607436,17.833325 20.686341,17.8600353 20.686341,17.913456 L20.686341,17.9401663 C20.8911203,18.6079246 21.2750813,19.3825243 21.8382242,20.0502826 C22.7341333,21.1721166 24.5515489,21.7864543 24.5003541,21.759744 L24.5003541,21.759744 Z M21.4542631,16.951884 C21.7102371,17.192277 21.9918086,17.4593803 22.27338,17.7799043 C22.5549514,18.073718 22.8621203,18.4209523 23.1692891,18.7681866 C23.4764579,19.115421 23.7580294,19.4626553 24.0140034,19.7831793 C24.2699774,20.1304136 24.5259515,20.4242273 24.7051333,20.718041 C24.9099125,20.9851443 25.0634969,21.2255373 25.1658865,21.4125096 C25.2682761,21.5727716 25.3194709,21.679613 25.3194709,21.679613 C25.7546268,21.2522476 25.4218606,19.355814 24.116393,17.833325 C22.8109255,16.3375463 20.9423151,15.83005 20.5839514,16.2039946 C20.5839514,16.2039946 20.686341,16.2841256 20.814328,16.390967 C20.9935099,16.5245186 21.2238865,16.711491 21.4542631,16.951884 L21.4542631,16.951884 Z M22.6061462,14.5212436 C22.9901073,14.628085 23.2972761,14.6547953 23.4508605,14.5212436 C23.4508605,14.5212436 23.3740683,14.4411126 23.2460813,14.2808506 C23.1180943,14.147299 22.9133151,13.9336163 22.7085359,13.666513 C22.4781592,13.3994096 22.2477826,13.105596 21.9662112,12.7583616 C21.7102371,12.4111273 21.4286657,12.063893 21.1726917,11.6899483 C20.9167177,11.3160036 20.6607436,10.942059 20.430367,10.5948246 C20.1999904,10.2475903 19.9952112,9.90035596 19.8160293,9.60654229 C19.6368475,9.31272863 19.5088605,9.04562529 19.4064709,8.88536329 C19.3040813,8.69839096 19.2784839,8.59154963 19.2784839,8.59154963 C19.0481073,8.77852196 18.971315,9.41956996 19.1248995,10.2475903 C19.1248995,10.2743006 19.1248995,10.301011 19.1504969,10.3544316 L19.1504969,10.381142 C19.2784839,11.0756106 19.5856527,11.8769206 20.0976008,12.5980996 C20.9167177,13.746644 22.6573411,14.547954 22.6061462,14.5212436 L22.6061462,14.5212436 Z M20.046406,9.39285963 C20.2767826,9.65996296 20.5071592,9.95377663 20.7887306,10.301011 C21.0447047,10.6482453 21.3262761,10.9954796 21.5822501,11.3694243 C21.8382242,11.743369 22.0941982,12.1173136 22.3245748,12.464548 C22.5549514,12.8384926 22.7597307,13.1590166 22.9389125,13.4795406 C23.1180943,13.7733543 23.2460813,14.0404576 23.3228735,14.22743 C23.4252631,14.4144023 23.4508605,14.5212436 23.4508605,14.5212436 C23.9372112,14.147299 23.7836268,12.224155 22.6317436,10.5681143 C21.4798605,8.93878396 19.6880423,8.24431529 19.2784839,8.56483929 C19.2784839,8.56483929 19.3552761,8.64497029 19.5088605,8.77852196 C19.6368475,8.93878396 19.8416267,9.15246663 20.046406,9.39285963 L20.046406,9.39285963 Z M11.3944838,17.7264836 C11.7784449,17.833325 12.0856137,17.833325 12.2391981,17.7264836 C12.2391981,17.7264836 12.1624059,17.6463526 12.0344189,17.4860906 C11.9064319,17.352539 11.7016527,17.1388563 11.4968734,16.871753 C11.2664968,16.6046496 11.0361202,16.310836 10.7545487,15.9636016 C10.4985747,15.6163673 10.2170033,15.269133 9.96102926,14.8951883 C9.70505523,14.5212436 9.4490812,14.147299 9.21870458,13.8000646 C8.98832795,13.4528303 8.78354873,13.105596 8.60436691,12.8117823 C8.42518509,12.5179686 8.29719808,12.2508653 8.19480847,12.0906033 C8.09241886,11.903631 8.06682145,11.7967896 8.06682145,11.7967896 C7.83644483,11.983762 7.75965262,12.62481 7.91323704,13.4528303 C7.91323704,13.4795406 7.91323704,13.506251 7.93883444,13.5596716 L7.93883444,13.586382 C8.06682145,14.2808506 8.37399029,15.0821606 8.88593834,15.8033396 C9.70505523,16.951884 11.4456786,17.753194 11.3944838,17.7264836 L11.3944838,17.7264836 Z M8.83474354,12.62481 C9.06512016,12.8919133 9.32109419,13.185727 9.57706822,13.5329613 C9.83304225,13.8801956 10.1146137,14.22743 10.3705877,14.6013746 C10.6265617,14.9753193 10.8825358,15.349264 11.1129124,15.6964983 C11.343289,16.0437326 11.5480682,16.390967 11.7272501,16.6847806 C11.9064319,16.9785943 12.0344189,17.2456976 12.1112111,17.4059596 C12.2136007,17.592932 12.2391981,17.6997733 12.2391981,17.6997733 C12.7255488,17.3258286 12.5719643,15.4026846 11.4200812,13.746644 C10.2681981,12.1173136 8.4763799,11.422845 8.04122405,11.7700793 C8.04122405,11.7700793 8.11801626,11.8502103 8.27160067,11.983762 C8.39958769,12.144024 8.60436691,12.3577066 8.83474354,12.62481 L8.83474354,12.62481 Z M15.5668605,12.9987546 C15.9508215,13.0521753 16.2579903,12.9720443 16.3859774,12.8117823 C16.3859774,12.8117823 16.2835878,12.7583616 16.1300033,12.62481 C15.9764189,12.5179686 15.7460423,12.3309963 15.4900683,12.1173136 C15.2340942,11.903631 14.9269254,11.663238 14.5941592,11.3694243 C14.2869903,11.102321 13.9542241,10.781797 13.6214579,10.4879833 C13.2886916,10.1674593 12.9815228,9.84693529 12.6999514,9.55312163 C12.4183799,9.23259763 12.1368085,8.96549429 11.9320293,8.69839096 C11.7016527,8.43128763 11.5224708,8.21760496 11.4200812,8.05734296 C11.2920942,7.89708096 11.2408994,7.81694996 11.2408994,7.81694996 C11.0617176,8.03063263 11.087315,8.69839096 11.3944838,9.47299063 C11.3944838,9.49970096 11.4200812,9.52641129 11.4200812,9.55312163 L11.4200812,9.57983196 C11.6760552,10.22088 12.1112111,10.9687693 12.7511462,11.583107 C13.7750423,12.5713893 15.6436527,13.025465 15.5668605,12.9987546 L15.5668605,12.9987546 Z M12.1368085,8.48470829 C12.3927825,8.69839096 12.6999514,8.93878396 13.0327176,9.23259763 C13.3398864,9.49970096 13.6726527,9.82022496 14.0054189,10.1140386 C14.3381851,10.4345626 14.645354,10.7550866 14.9269254,11.0489003 C15.2084968,11.3694243 15.4900683,11.663238 15.6948475,11.903631 C15.9252241,12.1707343 16.1044059,12.384417 16.2067955,12.544679 C16.3347826,12.704941 16.3859774,12.8117823 16.3859774,12.8117823 C16.7955358,12.3577066 16.3091852,10.4879833 14.8757306,9.09904596 C13.442276,7.71010863 11.5480682,7.41629496 11.215302,7.81694996 C11.215302,7.81694996 11.3176916,7.87037063 11.471276,8.00392229 C11.6504578,8.11076363 11.8808345,8.27102563 12.1368085,8.48470829 L12.1368085,8.48470829 Z" id="Shape" fill="#AE5351" sketch:type="MSShapeGroup"></path>
            </g>
        </g>
    </g>
</svg>